<?xml version="1.0" encoding="UTF-8" standalone="no"?>
<!-- Created with Inkscape (http://www.inkscape.org/) -->

<svg
   width="76.351135mm"
   height="66.670776mm"
   viewBox="0 0 76.351135 66.670776"
   version="1.1"
   id="svg1"
   xml:space="preserve"
   inkscape:version="1.4.3 (0d15f75042, 2025-12-25)"
   sodipodi:docname="logo.svg"
   xmlns:inkscape="http://www.inkscape.org/namespaces/inkscape"
   xmlns:sodipodi="http://sodipodi.sourceforge.net/DTD/sodipodi-0.dtd"
   xmlns="http://www.w3.org/2000/svg"
   xmlns:svg="http://www.w3.org/2000/svg"><sodipodi:namedview
     id="namedview1"
     pagecolor="#ffffff"
     bordercolor="#000000"
     borderopacity="0.25"
     inkscape:showpageshadow="2"
     inkscape:pageopacity="0.0"
     inkscape:pagecheckerboard="0"
     inkscape:deskcolor="#d1d1d1"
     inkscape:document-units="mm"
     showguides="true"
     inkscape:zoom="1.0681327"
     inkscape:cx="400.69927"
     inkscape:cy="469.51094"
     inkscape:window-width="1687"
     inkscape:window-height="1406"
     inkscape:window-x="0"
     inkscape:window-y="0"
     inkscape:window-maximized="1"
     inkscape:current-layer="layer1"><inkscape:page
       x="0"
       y="0"
       width="76.351135"
       height="66.670776"
       id="page2"
       margin="0"
       bleed="0" /></sodipodi:namedview><defs
     id="defs1"><inkscape:path-effect
       effect="perspective-envelope"
       up_left_point="39.270067,140.95426"
       up_right_point="50.999975,137.61454"
       down_left_point="39.141058,145.51991"
       down_right_point="50.838479,141.34388"
       id="path-effect27-1-0"
       is_visible="true"
       lpeversion="1"
       deform_type="perspective"
       horizontal_mirror="false"
       vertical_mirror="false"
       overflow_perspective="false" /></defs><g
     inkscape:label="Layer 1"
     inkscape:groupmode="layer"
     id="layer1"
     transform="translate(-110.97812,-21.11125)"><g
       id="g62"
       inkscape:export-filename="logoman.svg.svg"
       inkscape:export-xdpi="96"
       inkscape:export-ydpi="96"><path
         style="fill:#6b46f0;fill-opacity:1;stroke:#6b46f0;stroke-width:0.5;stroke-linecap:round;stroke-linejoin:round;stroke-dasharray:none;stroke-opacity:1;paint-order:normal"
         d="m 154.93422,30.234992 c 0,0 5.49129,-0.94064 5.87801,-1.00043 0.38672,-0.0598 0.64542,-0.0554 0.93523,0.53855 0.38895,0.79704 0.80755,1.27345 0.55076,1.59236 -0.091,0.113 -0.12817,0.18803 -0.20817,0.14477 -0.1577,-0.0852 0.0478,-0.27656 -0.32443,-1.06705 -0.35491,-0.75368 -0.29961,-1.10796 -0.89846,-0.92336 -0.51079,0.15745 -5.92502,1.701407 -5.92502,1.701407 -0.0924,-0.530782 0.007,-0.44522 -0.008,-0.986247 z"
         id="path31-8-0-7"
         sodipodi:nodetypes="czssssscc" /><path
         style="fill:#ffffff;stroke:#6b46f0;stroke-width:0.5;stroke-linecap:round;stroke-linejoin:round;stroke-dasharray:none;stroke-opacity:1;paint-order:normal"
         d="m 175.41639,48.217453 0.61304,0.525465 1.75155,5.342223 -3.98478,14.537856 c 0,0 -0.3941,1.66397 -1.5326,1.795336 -1.13851,0.131368 -8.88912,-4.510238 -8.97669,-5.298435 -0.0876,-0.788196 -1.35745,-7.487872 -1.00715,-9.458364 0.35032,-1.970493 11.64781,-7.400293 11.64781,-7.400293 z"
         id="path59-3" /><path
         style="fill:#ffffff;stroke:#6b46f0;stroke-width:0.5;stroke-linecap:round;stroke-linejoin:round;stroke-dasharray:none;stroke-opacity:1;paint-order:normal"
         d="m 150.51607,53.994348 c -3.98677,8.17415 -4.75921,13.37467 -5.60588,14.11021 -0.84665,0.73553 -11.90719,0.88164 -11.90719,0.88164 0,0 -7.17206,-1.65776 -5.8436,1.79005 1.32846,3.44783 3.92751,3.23447 5.79132,3.75318 1.86382,0.5187 12.20239,1.98818 17.04526,-0.15371 4.84287,-2.14182 15.45089,-21.21365 13.16645,-24.30202 -2.28444,-3.08837 -4.78933,-4.97064 -6.21587,-3.98497 -1.42655,0.98566 -6.43049,7.90557 -6.43049,7.90557 z"
         id="path13-9-2"
         sodipodi:nodetypes="sscsscsscs" /><path
         style="fill:#ffffff;stroke:#6b46f0;stroke-width:0.5;stroke-linecap:round;stroke-linejoin:round;stroke-dasharray:none;stroke-opacity:1;paint-order:normal"
         d="m 158.68809,25.144088 c 0.7882,-2.45217 4.60484,-4.11909 8.89613,-3.72499 4.2913,0.3941 7.0281,1.77345 7.68493,3.56879 0.65683,1.79534 0.85387,7.66302 -0.41599,10.20277 -0.72457,1.44913 -3.63447,3.91909 -3.94099,4.79486 -0.30652,0.87578 -0.13137,5.0357 0.21894,5.78011 0.35031,0.74441 2.67111,1.62019 2.67111,1.62019 l -6.04284,7.96955 -8.88911,6.39315 -3.45931,-1.70776 0.56925,-7.90387 2.97764,-6.80915 1.44503,0.0438 0.65683,-2.93385 z"
         id="path43-3-6"
         sodipodi:nodetypes="csssssccccccccc" /><path
         style="fill:#ffffff;stroke:#6b46f0;stroke-width:0.5;stroke-linecap:round;stroke-linejoin:round;stroke-dasharray:none;stroke-opacity:1;paint-order:normal"
         d="m 156.38986,38.186538 c 0.2083,-0.35879 -0.9868,0.0619 -0.83317,0.72414 0.15363,0.66221 0.97874,0.88629 0.5727,1.24544 -0.40603,0.35914 -0.2783,0.47284 -0.13512,0.7842 0.14317,0.31137 0.18407,0.40032 0.27804,0.20623 0.094,-0.19408 0.35039,-0.66767 0.50357,-0.66264 0.0943,0.003 0.0912,-0.26608 0.0961,-0.53649 -0.12779,-0.25269 -0.18246,-0.36772 -0.3095,-0.62278 -0.14927,-0.12745 -0.20778,-0.28851 -0.0422,-0.40442 0.3742,-0.26199 -0.35333,-0.34971 -0.13041,-0.73368 z"
         id="path37-8-6-5"
         sodipodi:nodetypes="ssssssccss" /><path
         style="fill:#ffffff;stroke:#6b46f0;stroke-width:0.5;stroke-linejoin:round;stroke-dasharray:none;stroke-opacity:1;paint-order:normal"
         d="m 158.7655,24.942827 c -1.07153,2.33131 -2.44758,3.670441 -2.26179,4.227781 0.0882,0.26459 0.27598,1.30123 0.23175,1.88449 -0.0489,0.64533 -0.62714,1.57596 -0.78977,2.16145 -0.30964,1.11468 -0.33464,2.86923 0.34655,5.53207 0.6812,2.66285 0.12386,2.7867 0.30964,3.52982 0.18578,0.74312 1.30046,1.48624 2.66284,1.67202 1.36238,0.18578 6.44037,-0.55734 7.86468,-1.30046 1.42431,-0.74312 2.10551,-1.98165 2.41514,-3.09633"
         id="path20-8-2"
         sodipodi:nodetypes="csssssssc" /><path
         style="fill:#ffffff;stroke:#6b46f0;stroke-width:0.5;stroke-linecap:round;stroke-linejoin:round;stroke-dasharray:none;stroke-opacity:1;paint-order:normal"
         d="m 156.86011,39.400998 c 0.3305,-0.25077 -0.93442,-0.32324 -1.04793,0.347 -0.11352,0.67025 0.56144,1.19508 0.0483,1.36995 -0.51309,0.17487 -0.43906,0.32902 -0.42698,0.67151 0.0121,0.34249 0.0155,0.44033 0.17705,0.29747 0.16154,-0.14285 0.58069,-0.481 0.72009,-0.41731 0.0858,0.0392 0.1867,-0.21037 0.29548,-0.45798 -0.0205,-0.28243 -0.0266,-0.40964 -0.0455,-0.69396 -0.0886,-0.17514 -0.0805,-0.3463 0.11695,-0.38943 0.44627,-0.0975 -0.19121,-0.45889 0.1625,-0.72725 z"
         id="path37-0-6"
         sodipodi:nodetypes="ssssssccss" /><path
         id="path37-3-2-5"
         style="fill:#ffffff;stroke:#6b46f0;stroke-width:0.5;stroke-linecap:round;stroke-linejoin:round;stroke-dasharray:none;stroke-opacity:1;paint-order:normal"
         d="m 156.64195,40.909988 c -0.95493,0.26788 -1.29812,0.12453 -1.12862,0.76016 0.17516,0.65684 1.00699,0.85356 0.61289,1.22577 -0.39408,0.3722 -0.2623,0.48205 -0.10904,0.78858 0.15325,0.30652 0.19664,0.39394 0.28422,0.19689 0.0876,-0.19704 0.32837,-0.67851 0.48163,-0.67851 0.07,0 0.11732,-0.16484 0.13539,-0.36019 -0.15934,-0.1818 -0.26843,-0.37299 -0.31626,-0.5643 -0.0261,-0.10442 -0.0375,-0.19653 -0.0398,-0.28526 -0.13661,-0.11402 -0.23503,-0.23326 -0.0858,-0.3452 0.0543,-0.0407 0.0976,-0.097 0.13177,-0.16123 0.019,-0.15546 0.0361,-0.33843 0.0336,-0.57671 z" /><path
         style="fill:#ffffff;stroke:#6b46f0;stroke-width:0.5;stroke-linecap:round;stroke-linejoin:round;stroke-dasharray:none;stroke-opacity:1;paint-order:normal"
         d="m 157.57143,41.870798 c -1.02903,0.30652 -1.40124,0.13136 -1.22609,0.78819 0.17517,0.65684 1.00713,0.85388 0.61304,1.22609 -0.39408,0.3722 -0.26272,0.48167 -0.10946,0.7882 0.15325,0.30652 0.19704,0.39409 0.28462,0.19704 0.0876,-0.19704 0.32841,-0.67872 0.48167,-0.67872 0.15327,0 0.19706,-0.7882 0.0657,-0.96335 -0.13137,-0.17516 -0.63494,-0.3941 -0.37222,-0.59115 0.26275,-0.19705 0.26275,-0.7663 0.26275,-0.7663 z"
         id="path37-3-9-1-8" /><path
         style="fill:#ffffff;stroke:#6b46f0;stroke-width:0.5;stroke-linecap:round;stroke-linejoin:round;stroke-dasharray:none;stroke-opacity:1;paint-order:normal"
         d="m 158.88244,44.684698 c 0.98083,0.50198 0.31932,-0.44945 0.66655,0.55547 -2.49644,4.60514 -2.71566,10.2788 -2.56914,14.60598 2.63676,-4.63015 12.70038,-10.31308 16.43906,-12.86859 0.78423,0.28621 1.53131,0.73909 2.2125,1.31788 0,0 -5.37608,1.27981 -7.12762,10.73818 -1.16968,6.31628 4.55403,9.10805 4.55403,9.10805 l 3.15278,-0.52546 c 0,0 -3.15278,6.83104 -3.67825,9.63351 -0.52546,2.80248 0.35031,8.05713 0.35031,8.05713 0,0 -0.70062,1.05093 -4.02856,1.75155 -3.32794,0.70062 -10.33414,1.05093 -14.36271,-2.27701 -4.02856,-3.32795 -5.07949,-3.67826 -4.37887,-6.65589 0.70062,-2.97763 -3.66609,-22.05573 8.76992,-33.4408 z"
         id="path9-0-7"
         sodipodi:nodetypes="cccccsccscsssc" /><path
         style="fill:#ffffff;stroke:#6b46f0;stroke-width:0.5;stroke-linecap:round;stroke-linejoin:round;stroke-dasharray:none;stroke-opacity:1;paint-order:normal"
         d="m 160.6727,48.389208 c -0.74996,0.74268 -1.43444,1.66304 -2.74774,3.22942 0,0 -0.78435,-1.91201 -0.43403,-3.29136 0.35031,-1.37934 2.32085,-4.34794 2.32085,-4.34794 l 2.06356,-0.47717 -1.426,1.65912 -0.37997,2.19224 c 0.0209,0.47035 0.47012,0.80858 0.60333,1.03569 z"
         id="path52-5-9"
         sodipodi:nodetypes="ccsccccc" /><path
         style="fill:#ffffff;stroke:#6b46f0;stroke-width:0.5;stroke-linecap:round;stroke-linejoin:round;stroke-dasharray:none;stroke-opacity:1;paint-order:normal"
         d="m 176.03545,48.699478 c 5.29844,1.66397 6.56831,5.73632 6.56831,5.73632 l 4.46645,19.3002 c 0.0667,0.45821 -0.34938,1.47656 -0.52776,2.1995 -0.18113,0.73413 -0.29291,1.59296 -0.77625,2.59666 -1.18706,2.46507 -7.62889,3.6219 -9.03013,3.97221 -1.40124,0.35031 -4.11614,-0.19705 -4.11614,-0.19705 -0.14049,-0.97569 -0.38982,-4.53525 0.3941,-6.94051 l 3.76367,-1.93757 c 0.44752,0.51226 0.67213,1.08024 0.79035,1.67483 -0.24534,-2.27422 -3.64006,-5.07049 -5.03569,-9.10804 0,0 -2.97765,-1.44504 -2.80249,-5.21086 0.27717,-5.95912 2.62733,-9.63352 6.30558,-12.08569 z"
         id="path10-1-6"
         sodipodi:nodetypes="cccssscccccsc" /><path
         id="path12-1-04"
         style="fill:#ffffff;stroke:#6b46f0;stroke-width:0.5;stroke-linecap:round;stroke-linejoin:round;stroke-dasharray:none;stroke-opacity:1;paint-order:normal"
         d="m 125.65624,59.625648 c -0.61543,-0.0311 -1.22579,-9.5e-4 -1.81694,0.10852 -4.72919,0.87577 -4.9041,4.20388 -4.9041,4.20388 8.5826,5.4298 7.53129,8.23238 10.50893,7.00629 2.97763,-1.22608 3.5032,-4.1e-4 3.85351,-2.45257 0.3503,-2.45217 1.22628,-5.42964 1.22628,-5.42964 0,0 -4.55962,-3.21856 -8.86768,-3.43648 z m 6.51537,3.55327 -0.12351,1.08365 c -0.86697,0.71216 -2.44636,0.52607 -2.44636,0.52607 l -0.74311,-0.43357 z" /><ellipse
         style="fill:#ffffff;stroke:#6b46f0;stroke-width:0.5;stroke-linecap:round;stroke-linejoin:round;stroke-dasharray:none;stroke-opacity:1;paint-order:normal"
         id="path11-0-1"
         cx="126.02872"
         cy="59.909393"
         rx="14.800589"
         ry="4.7291818" /><path
         style="fill:none;stroke:#6b46f0;stroke-width:0.5;stroke-linejoin:round;stroke-dasharray:none;stroke-opacity:1;paint-order:normal"
         d="m 159.3886,31.565138 c 0,0 -0.30963,1.48624 -0.86697,2.91055 -0.55734,1.42431 -1.79587,1.54816 -1.1766,2.53899 0.61926,0.99083 1.85779,0.49541 2.53899,0.68119 0.68119,0.18578 1.30045,-1.11468 0.61926,-1.48624 -0.68119,-0.37156 -1.30046,0.12386 -1.42431,-0.0619"
         id="path19-8-0" /><path
         style="fill:none;stroke:#6b46f0;stroke-width:0.5;stroke-linejoin:round;stroke-dasharray:none;stroke-opacity:1;paint-order:normal"
         d="m 157.28278,39.486755 c 1.1766,-0.18578 1.67202,0.0619 2.29128,0.43348 0.61927,0.37156 1.23853,0.61927 1.8578,0.0619"
         id="path21-5-4" /><g
         id="g40-0-8"
         transform="matrix(1.2315614,0,0,1.2485563,31.187745,-118.34802)"
         style="stroke:#6b46f0;stroke-width:0.403216;stroke-dasharray:none;stroke-opacity:1"><path
           style="opacity:1;fill:#ffffff;stroke:#6b46f0;stroke-width:0.403216;stroke-linecap:round;stroke-linejoin:round;stroke-dasharray:none;stroke-opacity:1;paint-order:normal"
           d="m 106.21961,121.19036 c 0,0 0.13933,-0.52637 1.05275,-0.46444 0.91342,0.0619 1.59461,0.95986 1.59461,0.95986"
           id="path39-6-7" /><path
           style="opacity:1;fill:#ffffff;stroke:#6b46f0;stroke-width:0.403216;stroke-linecap:round;stroke-linejoin:round;stroke-dasharray:none;stroke-opacity:1;paint-order:normal"
           d="m 106.28179,121.82368 c 0,0 0.0985,0.13183 0.68977,0.31728 0.59125,0.18544 1.13984,0.11919 1.34886,0.0266"
           id="path40-4-0" /></g><g
         id="g27-6-86"
         transform="matrix(-1,0.06298816,0,1,205.82168,-110.93038)"
         inkscape:path-effect="#path-effect27-1-0"
         style="stroke:#6b46f0;stroke-width:0.5;stroke-dasharray:none;stroke-opacity:1"><path
           style="opacity:1;fill:none;stroke:#6b46f0;stroke-width:0.5;stroke-linecap:round;stroke-linejoin:round;stroke-dasharray:none;stroke-opacity:1;paint-order:normal"
           d="m 45.342468,140.06701 c -0.01591,-0.17511 -0.213258,-0.27314 -0.573519,-0.28858 -0.365043,-0.0157 -2.152333,0.19928 -3.209885,0.52562 -1.095933,0.33819 -1.83972,0.63894 -2.075966,0.93596 -0.224742,0.28256 -0.29042,0.84986 -0.229592,1.65572 0.06513,0.86284 0.12542,1.35181 0.191474,1.57316 0.06586,0.22069 0.334851,0.48481 0.732536,0.47428 0.392435,-0.0104 1.37154,-0.28293 2.074813,-0.534 0.687043,-0.24527 1.505345,-0.68343 1.842239,-1.04498 0.333314,-0.35772 0.780997,-1.49519 0.929342,-1.87947 0.147768,-0.38277 0.334443,-1.24282 0.318558,-1.41771 z"
           id="path27-2-2"
           sodipodi:nodetypes="zsssszssssz"
           inkscape:original-d="m 61.785886,122.38948 c -0.04379,-0.32841 -0.437885,-0.61304 -1.138507,-0.83198 -0.70062,-0.21895 -3.984773,-0.74441 -5.8239,-0.70062 -1.839127,0.0438 -3.04707,0.19063 -3.415519,0.56925 -0.348198,0.35781 -0.427686,1.26034 -0.293695,2.62247 0.14419,1.46582 0.264044,2.31307 0.381272,2.71976 0.117228,0.40669 0.569253,1.00713 1.226084,1.22608 0.656831,0.21894 2.320803,0.35031 3.546888,0.35031 1.226084,0 2.7149,-0.26273 3.327942,-0.70062 0.613042,-0.43789 1.401239,-2.23322 1.66397,-2.84627 0.262734,-0.61304 0.569254,-2.07996 0.525465,-2.40838 z" /><path
           style="fill:none;stroke:#6b46f0;stroke-width:0.5;stroke-linecap:round;stroke-linejoin:round;stroke-dasharray:none;stroke-opacity:1;paint-order:normal"
           d="m 46.694621,139.79896 c 0.03987,-0.18263 0.227633,-0.39071 0.540448,-0.60467 0.309419,-0.21164 1.685575,-0.91527 2.406538,-1.12218 0.70156,-0.2012 1.145248,-0.27188 1.2595,-0.12738 0.107423,0.13586 0.08398,0.57322 -0.04493,1.26498 -0.139037,0.74616 -0.233115,1.18325 -0.300558,1.40163 -0.06756,0.21876 -0.272192,0.5824 -0.533279,0.787 -0.263616,0.20657 -0.917472,0.52271 -1.403818,0.71081 -0.495378,0.1916 -1.093028,0.2908 -1.32242,0.15796 -0.231543,-0.13407 -0.454302,-0.96679 -0.528213,-1.25438 -0.07421,-0.28871 -0.113171,-1.03101 -0.07327,-1.21377 z"
           id="path27-8-5-4"
           sodipodi:nodetypes="zsssszssssz"
           inkscape:original-d="m 64.497964,122.64616 c 0.06829,-0.3196 0.442362,-0.60505 1.081564,-0.83409 0.6392,-0.22905 3.590362,-0.81688 5.212586,-0.81817 1.622221,-10e-4 2.677074,0.11241 2.968777,0.47087 0.27567,0.33877 0.264712,1.21229 0.02362,2.53668 -0.25944,1.42522 -0.44168,2.24987 -0.581942,2.64713 -0.140261,0.39725 -0.593991,0.99041 -1.194474,1.21843 -0.600481,0.22799 -2.083598,0.39501 -3.167707,0.42419 -1.084109,0.0292 -2.376878,-0.19022 -2.879517,-0.60037 -0.502638,-0.41014 -1.037959,-2.13278 -1.215083,-2.72116 -0.17713,-0.58836 -0.31611,-2.00392 -0.247829,-2.32351 z" /></g><path
         style="fill:none;stroke:#6b46f0;stroke-width:0.5;stroke-linecap:round;stroke-linejoin:round;stroke-dasharray:none;stroke-opacity:1;paint-order:normal"
         d="m 161.35165,33.727118 v -0.43805 c 0,0 0.029,-0.27211 -0.13051,-0.25274 -0.15953,0.0201 -0.13778,0.27896 -0.13053,0.45558 0.007,0.17665 -0.0725,0.47058 0.10152,0.44098 0.17402,-0.0297 0.15952,-0.20577 0.15952,-0.20577 z"
         id="path28-8-7"
         sodipodi:nodetypes="ccccsc" /><path
         style="fill:none;stroke:#6b46f0;stroke-width:0.5;stroke-linecap:round;stroke-linejoin:round;stroke-dasharray:none;stroke-opacity:1;paint-order:normal"
         d="m 161.06408,34.427638 c 0,0 0.13043,-0.10501 0.0932,-0.31241 -0.0372,-0.20738 -0.37885,-1.07321 -0.21738,-1.08338 0.16149,-0.0102 0.26086,0.26591 0.29191,0.48982"
         id="path29-6-9" /><path
         style="fill:#6b46f0;fill-opacity:1;stroke:#6b46f0;stroke-width:0.5;stroke-linecap:round;stroke-linejoin:round;stroke-dasharray:none;stroke-opacity:1;paint-order:normal"
         d="m 158.89342,31.563858 c 0.36122,0.0691 1.1425,0.21646 1.59843,0.23396 -0.21687,0.0547 -0.0937,0.45392 -0.0296,0.61089 -0.52872,0.0699 -1.33874,-0.0723 -1.39444,-0.27893 6.7e-4,-0.15191 -0.0336,-0.51067 -0.17425,-0.56592 z"
         id="path30-2-3"
         sodipodi:nodetypes="cccccc" /><path
         style="fill:#6b46f0;fill-opacity:1;stroke:#6b46f0;stroke-width:0.5;stroke-linecap:round;stroke-linejoin:round;stroke-dasharray:none;stroke-opacity:1;paint-order:normal"
         d="m 166.41042,32.749838 c 0,0 5.52225,-1.03353 5.90897,-1.09332 0.38672,-0.0598 0.64542,-0.0554 0.93523,0.53855 0.38895,0.79704 0.80755,1.27345 0.55076,1.59236 -0.091,0.113 -0.12817,0.18803 -0.20817,0.14477 -0.1577,-0.0852 0.0478,-0.27656 -0.32443,-1.06705 -0.35491,-0.75368 -0.29961,-1.10796 -0.89846,-0.92336 -0.51079,0.15745 -5.7702,2.10393 -5.7702,2.10393 0.0314,-0.5153 -0.009,-0.81678 -0.1937,-1.29588 z"
         id="path31-8-92"
         sodipodi:nodetypes="czssssscc" /><g
         id="g31-4-8"
         transform="rotate(8.160891,748.27817,470.00315)"
         style="stroke:#6b46f0;stroke-width:0.5;stroke-dasharray:none;stroke-opacity:1"><path
           style="opacity:1;fill:#ffffff;stroke:#6b46f0;stroke-width:0.5;stroke-linecap:round;stroke-linejoin:round;stroke-dasharray:none;stroke-opacity:1;paint-order:normal"
           d="m 114.40258,119.38448 c 0.61926,-1.98165 1.02861,-2.15742 1.7098,-1.94067 0.6812,0.21674 0.84786,2.14084 0.67495,3.01047 -0.17328,0.87154 -0.78007,0.94032 -0.96052,1.50628 -0.15455,0.48474 0.29331,1.39682 -0.6539,1.59709"
           id="path25-7-3"
           sodipodi:nodetypes="csssc" /><path
           style="opacity:1;fill:none;stroke:#6b46f0;stroke-width:0.5;stroke-linecap:round;stroke-linejoin:round;stroke-dasharray:none;stroke-opacity:1;paint-order:normal"
           d="m 116.23311,118.99337 c -0.11793,-0.7141 -0.19124,-1.53429 -0.77268,-0.64386 -0.58888,0.90182 -0.57861,1.86497 -0.42379,1.98882 0.15481,0.12386 0.46913,0.18571 0.50026,0.58823"
           id="path26-2-0"
           sodipodi:nodetypes="cssc" /></g><g
         id="g36-4-1"
         transform="matrix(0.99931773,0.0859926,-0.03693334,0.99750457,61.597738,-95.83679)"
         style="stroke:#6b46f0;stroke-width:0.5;stroke-dasharray:none;stroke-opacity:1"><path
           style="opacity:1;fill:#ffffff;stroke:#6b46f0;stroke-width:0.5;stroke-linecap:round;stroke-linejoin:round;stroke-dasharray:none;stroke-opacity:1;paint-order:normal"
           d="m 100.56302,125.20049 c -0.39955,1.8e-4 -0.847124,0.36444 -0.769714,0.736 0.0774,0.37156 0.238554,0.72968 0.238554,0.72968 0,0 0.0929,-0.36057 0.21621,-0.42928 0.1421,-0.0792 0.20883,-0.0855 0.42519,-0.0654 0.21674,0.0201 0.35697,-0.37346 0.38962,-0.56008 0.0382,-0.21818 -0.49986,-0.41089 -0.49986,-0.41089 z"
           id="path36-0-7"
           sodipodi:nodetypes="sscssss" /><path
           style="fill:#ffffff;stroke:#6b46f0;stroke-width:0.5;stroke-linecap:round;stroke-linejoin:round;stroke-dasharray:none;stroke-opacity:1;paint-order:normal"
           d="m 101.02911,125.15581 c -0.30638,-0.0836 -0.74556,0.174 -0.78419,0.54863 -0.0387,0.37463 -0.01,0.75385 -0.01,0.75385 0.25864,-0.14398 0.39262,-0.224 0.62219,-0.34277 0.15403,-0.0797 0.37215,-0.28544 0.4464,-0.45861 0.0868,-0.20244 -0.27489,-0.5011 -0.27489,-0.5011 z"
           id="path36-7-6-8"
           sodipodi:nodetypes="sscssss" /><path
           style="fill:#ffffff;stroke:#6b46f0;stroke-width:0.5;stroke-linecap:round;stroke-linejoin:round;stroke-dasharray:none;stroke-opacity:1;paint-order:normal"
           d="m 101.76649,125.14049 c -0.29459,-0.11863 -0.76074,0.0861 -0.84267,0.45372 -0.082,0.36759 -0.0971,0.74763 -0.0971,0.74763 0.44892,-0.0185 0.55891,-0.11423 0.65783,-0.26803 0.0938,-0.14587 0.40281,-0.24022 0.49669,-0.40358 0.10981,-0.19097 -0.21475,-0.52967 -0.21475,-0.52967 z"
           id="path36-7-9-2-9"
           sodipodi:nodetypes="sscssss" /><path
           style="opacity:1;fill:#ffffff;stroke:#6b46f0;stroke-width:0.5;stroke-linecap:round;stroke-linejoin:round;stroke-dasharray:none;stroke-opacity:1;paint-order:normal"
           d="m 101.96848,125.085 c -0.26319,0.50316 -0.37156,0.53412 -0.19352,0.95987 0.17804,0.42574 0.66571,0.46444 0.95212,0.51089 0.28641,0.0464 0.49541,-0.008 0.49541,-0.008 0,0 -0.19352,-0.38704 -0.48767,-0.51864 -0.29415,-0.13159 -0.3406,-0.33285 -0.30963,-0.58056 0.031,-0.2477 -0.45671,-0.36382 -0.45671,-0.36382 z"
           id="path32-9-1" /><path
           style="fill:#ffffff;stroke:#6b46f0;stroke-width:0.5;stroke-linecap:round;stroke-linejoin:round;stroke-dasharray:none;stroke-opacity:1;paint-order:normal"
           d="m 102.63306,125.24061 c -0.28987,0.51872 -0.40923,0.55064 -0.21314,0.98955 0.19609,0.43891 0.7332,0.4788 1.04865,0.52669 0.31545,0.0478 0.54564,-0.008 0.54564,-0.008 0,0 -0.21314,-0.399 -0.53711,-0.53467 -0.32398,-0.13566 -0.37513,-0.34315 -0.34102,-0.59851 0.0341,-0.25536 -0.50302,-0.37507 -0.50302,-0.37507 z"
           id="path32-2-9-5" /><path
           style="fill:#ffffff;stroke:#6b46f0;stroke-width:0.5;stroke-linecap:round;stroke-linejoin:round;stroke-dasharray:none;stroke-opacity:1;paint-order:normal"
           d="m 103.40466,125.47566 c -0.28987,0.51872 -0.40923,0.55064 -0.21314,0.98955 0.19609,0.43891 0.7332,0.4788 1.04865,0.52669 0.31545,0.0478 0.54564,-0.008 0.54564,-0.008 0,0 -0.21314,-0.399 -0.53711,-0.53467 -0.32398,-0.13566 -0.37513,-0.34315 -0.34102,-0.59851 0.0341,-0.25536 -0.50302,-0.37507 -0.50302,-0.37507 z"
           id="path32-2-2-0-4" /><path
           style="fill:#ffffff;stroke:#6b46f0;stroke-width:0.5;stroke-linecap:round;stroke-linejoin:round;stroke-dasharray:none;stroke-opacity:1;paint-order:normal"
           d="m 104.12446,125.57269 c -0.28987,0.51872 -0.40923,0.55064 -0.21314,0.98955 0.19609,0.43891 0.7332,0.4788 1.04865,0.52669 0.31545,0.0478 0.54564,-0.008 0.54564,-0.008 0,0 -0.21314,-0.399 -0.53711,-0.53467 -0.32398,-0.13566 -0.37513,-0.34315 -0.34102,-0.59851 0.0341,-0.25536 -0.50302,-0.37507 -0.50302,-0.37507 z"
           id="path32-2-3-8-9" /><path
           style="fill:#ffffff;stroke:#6b46f0;stroke-width:0.5;stroke-linecap:round;stroke-linejoin:round;stroke-dasharray:none;stroke-opacity:1;paint-order:normal"
           d="m 104.79542,125.76332 c -0.24564,0.43908 -0.34679,0.4661 -0.18062,0.83763 0.16617,0.37152 0.62134,0.40529 0.88866,0.44582 0.26732,0.0405 0.46239,-0.007 0.46239,-0.007 0,0 -0.18062,-0.33774 -0.45516,-0.45258 -0.27455,-0.11483 -0.3179,-0.29047 -0.28899,-0.50662 0.0289,-0.21616 -0.42628,-0.31749 -0.42628,-0.31749 z"
           id="path32-2-31-1-2" /><path
           style="fill:#ffffff;stroke:#6b46f0;stroke-width:0.5;stroke-linecap:round;stroke-linejoin:round;stroke-dasharray:none;stroke-opacity:1;paint-order:normal"
           d="m 105.16966,126.23134 c 0.29177,0.40371 0.27441,0.47779 0.67481,0.60534 0.40043,0.12755 0.61746,-0.11267 0.76345,-0.24135 0.1459,-0.12876 0.184,-0.26851 0.184,-0.26851 0,0 -0.37614,-0.099 -0.59152,-0.0107 -0.21539,0.0883 -0.39022,0.008 -0.57164,-0.13822 -0.18141,-0.14607 -0.45886,0.0536 -0.45886,0.0536 z"
           id="path32-2-4-3-57" /></g><path
         style="fill:#ffffff;stroke:#6b46f0;stroke-width:0.5;stroke-linecap:round;stroke-linejoin:round;stroke-dasharray:none;stroke-opacity:1;paint-order:normal"
         d="m 168.69127,39.422418 c -0.50075,0.95408 -0.70694,1.01281 -0.3682,1.82009 0.33875,0.80728 1.26659,0.88067 1.81151,0.96874 0.54493,0.0879 0.94259,-0.0148 0.94259,-0.0148 0,0 -0.3682,-0.73388 -0.92785,-0.98341 -0.55966,-0.24953 -0.64802,-0.63116 -0.58909,-1.10085 0.0589,-0.46969 -0.86896,-0.68986 -0.86896,-0.68986 z"
         id="path32-2-1-0-1-4" /><path
         style="fill:#ffffff;stroke:#6b46f0;stroke-width:0.5;stroke-linecap:round;stroke-linejoin:round;stroke-dasharray:none;stroke-opacity:1;paint-order:normal"
         d="m 168.06575,40.072218 c -0.35808,1.10196 -0.50553,1.16977 -0.2633,2.10219 0.24224,0.9324 0.90572,1.01716 1.29539,1.11888 0.38967,0.10156 0.67402,-0.0171 0.67402,-0.0171 0,0 -0.26328,-0.84762 -0.66348,-1.13584 -0.40021,-0.28819 -0.46339,-0.72898 -0.42126,-1.27146 0.0421,-0.54249 -0.62137,-0.79679 -0.62137,-0.79679 z"
         id="path32-2-1-4-10-9" /><path
         style="fill:#ffffff;stroke:#6b46f0;stroke-width:0.5;stroke-linecap:round;stroke-linejoin:round;stroke-dasharray:none;stroke-opacity:1;paint-order:normal"
         d="m 166.88232,41.041138 c -0.0755,1.18381 -0.21824,1.33794 0.3182,1.98622 0.53645,0.64826 1.29151,0.29141 1.74998,0.1267 0.45845,-0.16487 0.73722,-0.45166 0.73722,-0.45166 0,0 -0.5351,-0.56139 -1.05912,-0.55091 -0.52403,0.0105 -0.72111,-0.32923 -0.83164,-0.82505 -0.11054,-0.49583 -0.91467,-0.28541 -0.91467,-0.28541 z"
         id="path32-2-1-4-2-34-94" /><path
         style="fill:#ffffff;stroke:#6b46f0;stroke-width:0.5;stroke-linecap:round;stroke-linejoin:round;stroke-dasharray:none;stroke-opacity:1;paint-order:normal"
         d="m 168.95661,36.896378 c -0.36536,0.75176 -0.5158,0.72718 -0.26864,1.67133 0.24715,0.94414 0.92412,1.39241 1.32171,1.70065 0.39759,0.30807 0.68773,0.36604 0.68773,0.36604 0,0 -0.26865,-0.88265 -0.67698,-1.3583 -0.40834,-0.47565 -0.47281,-0.89298 -0.42981,-1.33886 0.043,-0.44589 -0.63401,-1.04095 -0.63401,-1.04095 z"
         id="path32-2-1-0-87-0-5" /><path
         style="fill:#ffffff;stroke:#6b46f0;stroke-width:0.5;stroke-linecap:round;stroke-linejoin:round;stroke-dasharray:none;stroke-opacity:1;paint-order:normal"
         d="m 168.24562,37.865798 c -0.35808,1.10196 -0.50553,1.16977 -0.2633,2.10219 0.24224,0.9324 0.90572,1.01716 1.29539,1.11888 0.38967,0.10156 0.67402,-0.0171 0.67402,-0.0171 0,0 -0.26328,-0.84762 -0.66348,-1.13584 -0.40021,-0.28819 -0.46339,-0.72898 -0.42126,-1.27146 0.0421,-0.54249 -0.62137,-0.79679 -0.62137,-0.79679 z"
         id="path32-2-1-4-1-3-9" /><path
         style="fill:#ffffff;stroke:#6b46f0;stroke-width:0.5;stroke-linecap:round;stroke-linejoin:round;stroke-dasharray:none;stroke-opacity:1;paint-order:normal"
         d="m 169.4357,33.876908 c -0.52681,0.50892 -0.67197,0.49228 -0.62757,1.13143 0.0444,0.63915 0.6251,0.94261 0.9565,1.15128 0.33143,0.20855 0.60912,0.2478 0.60912,0.2478 0,0 -0.0791,-0.59753 -0.38529,-0.91952 -0.30619,-0.322 -0.28103,-0.60452 -0.14228,-0.90636 0.13876,-0.30186 -0.41046,-0.70469 -0.41046,-0.70469 z"
         id="path32-2-1-0-87-9-9-3" /><path
         style="fill:#ffffff;stroke:#6b46f0;stroke-width:0.5;stroke-linecap:round;stroke-linejoin:round;stroke-dasharray:none;stroke-opacity:1;paint-order:normal"
         d="m 168.84162,34.906398 c -0.52736,0.52604 -0.67251,0.50884 -0.62881,1.1695 0.0437,0.66066 0.62406,0.97433 0.95523,1.19002 0.3312,0.21557 0.60885,0.25613 0.60885,0.25613 0,0 -0.0785,-0.61762 -0.38427,-0.95046 -0.30584,-0.33283 -0.28038,-0.62485 -0.1413,-0.93685 0.13909,-0.31201 -0.40968,-0.7284 -0.40968,-0.7284 z"
         id="path32-2-1-0-87-6-1-5" /><path
         style="fill:#ffffff;stroke:#6b46f0;stroke-width:0.5;stroke-linecap:round;stroke-linejoin:round;stroke-dasharray:none;stroke-opacity:1;paint-order:normal"
         d="m 167.93179,36.251148 c -0.35808,1.10196 -0.50553,1.16977 -0.2633,2.10219 0.24224,0.9324 0.90572,1.01716 1.29539,1.11888 0.38967,0.10156 0.67402,-0.0171 0.67402,-0.0171 0,0 -0.26328,-0.84762 -0.66348,-1.13584 -0.40021,-0.28819 -0.46339,-0.72898 -0.42126,-1.27146 0.0421,-0.54249 -0.62137,-0.79679 -0.62137,-0.79679 z"
         id="path32-2-1-4-1-1-9-70" /><path
         style="fill:#ffffff;stroke:#6b46f0;stroke-width:0.5;stroke-linecap:round;stroke-linejoin:round;stroke-dasharray:none;stroke-opacity:1;paint-order:normal"
         d="m 167.34617,39.278418 c -0.0601,1.15654 -0.17367,1.25913 0.25323,2.10113 0.42692,0.842 1.02781,0.75783 1.39267,0.75869 0.36484,6.9e-4 0.58669,-0.18542 0.58669,-0.18542 0,0 -0.42584,-0.75464 -0.84287,-0.9334 -0.41703,-0.17875 -0.57387,-0.58965 -0.66183,-1.12539 -0.088,-0.53576 -0.72791,-0.61573 -0.72791,-0.61573 z"
         id="path32-2-1-4-2-7-6-8" /><path
         style="fill:#ffffff;stroke:#6b46f0;stroke-width:0.5;stroke-linecap:round;stroke-linejoin:round;stroke-dasharray:none;stroke-opacity:1;paint-order:normal"
         d="m 166.71307,41.224488 c -0.71623,0.6057 -0.90416,0.58832 -0.88481,1.33846 0.0194,0.75014 0.75693,1.09793 1.1757,1.33809 0.41882,0.24003 0.77789,0.28197 0.77789,0.28197 0,0 -0.067,-0.70072 -0.44618,-1.07438 -0.37915,-0.37367 -0.32944,-0.70591 -0.13071,-1.06256 0.19871,-0.35666 -0.49187,-0.82165 -0.49187,-0.82165 z"
         id="path32-2-1-0-4-9-1" /><path
         style="fill:#ffffff;stroke:#6b46f0;stroke-width:0.5;stroke-linecap:round;stroke-linejoin:round;stroke-dasharray:none;stroke-opacity:1;paint-order:normal"
         d="m 165.99193,41.548348 c -0.64657,0.76823 -0.78922,0.77642 -0.8891,1.59639 -0.0999,0.81996 0.41722,1.09443 0.70428,1.2971 0.28711,0.20254 0.55833,0.19643 0.55833,0.19643 0,0 0.0555,-0.75883 -0.18052,-1.11369 -0.23599,-0.35484 -0.14667,-0.72647 0.0615,-1.14648 0.20823,-0.42002 -0.25454,-0.82984 -0.25454,-0.82984 z"
         id="path32-2-1-4-3-3-9" /><path
         style="fill:#ffffff;stroke:#6b46f0;stroke-width:0.5;stroke-linecap:round;stroke-linejoin:round;stroke-dasharray:none;stroke-opacity:1;paint-order:normal"
         d="m 164.71098,41.953108 c -0.44099,0.92166 -0.60742,1.00024 -0.37499,1.68504 0.23245,0.68479 0.96604,0.63521 1.39484,0.6466 0.42884,0.0112 0.74932,-0.13084 0.74932,-0.13084 0,0 -0.25915,-0.61501 -0.69233,-0.76998 -0.43319,-0.15494 -0.48607,-0.48762 -0.41797,-0.91795 0.0681,-0.43034 -0.65886,-0.51297 -0.65886,-0.51297 z"
         id="path32-2-1-4-2-0-3-9" /><path
         style="fill:#ffffff;stroke:#6b46f0;stroke-width:0.5;stroke-linecap:round;stroke-linejoin:round;stroke-dasharray:none;stroke-opacity:1;paint-order:normal"
         d="m 164.4206,42.174708 c -0.78555,0.49996 -0.94884,0.48952 -1.11383,1.09176 -0.16498,0.60223 0.40792,0.86781 0.72283,1.05289 0.315,0.18499 0.62486,0.21196 0.62486,0.21196 0,0 0.11049,-0.56164 -0.13667,-0.85471 -0.24717,-0.29309 -0.12214,-0.56091 0.14164,-0.85112 0.26377,-0.29024 -0.23879,-0.65084 -0.23879,-0.65084 z"
         id="path32-2-1-0-8-8-7" /><path
         style="fill:#ffffff;stroke:#6b46f0;stroke-width:0.5;stroke-linecap:round;stroke-linejoin:round;stroke-dasharray:none;stroke-opacity:1;paint-order:normal"
         d="m 163.69914,42.448368 c -0.76293,0.62922 -0.89208,0.63847 -1.18032,1.29903 -0.28821,0.66056 0.10599,0.87135 0.31261,1.0288 0.2067,0.15733 0.44994,0.14734 0.44994,0.14734 0,0 0.23379,-0.61061 0.10967,-0.89126 -0.12414,-0.28063 0.0458,-0.58085 0.33342,-0.92212 0.28766,-0.34131 -0.0252,-0.66189 -0.0252,-0.66189 z"
         id="path32-2-1-4-4-0-8" /><path
         style="fill:#ffffff;stroke:#6b46f0;stroke-width:0.5;stroke-linecap:round;stroke-linejoin:round;stroke-dasharray:none;stroke-opacity:1;paint-order:normal"
         d="m 162.45906,42.797488 c -0.61698,0.74863 -0.78442,0.81487 -0.74361,1.36062 0.0408,0.54576 0.70673,0.4922 1.08616,0.49332 0.3795,10e-4 0.69968,-0.11908 0.69968,-0.11908 0,0 -0.0816,-0.48919 -0.43003,-0.60557 -0.34848,-0.11636 -0.31478,-0.38262 -0.14953,-0.72958 0.16525,-0.34697 -0.46264,-0.39974 -0.46264,-0.39974 z"
         id="path32-2-1-4-2-3-5-2" /><path
         style="fill:#ffffff;stroke:#6b46f0;stroke-width:0.5;stroke-linecap:round;stroke-linejoin:round;stroke-dasharray:none;stroke-opacity:1;paint-order:normal"
         d="m 158.3448,41.715178 c -0.83198,0.15326 -1.1385,0.50357 -1.16039,0.7663 -0.0219,0.26273 0.15326,0.94146 0.30652,1.02904 0.15326,0.0876 0.26273,0.24083 0.15326,0.50356 -0.10948,0.26274 -0.32842,0.32842 -0.35031,0.43789 -0.0219,0.10947 0,0.37221 0,0.37221 0,0 0.17515,-0.21895 0.39409,-0.37221 0.21895,-0.15326 0.76631,-0.3722 0.7882,-0.56925 0.0219,-0.19705 -0.28463,-0.7663 -0.21894,-0.94146 0.0657,-0.17515 0.50357,-0.15326 0.54736,-0.59115 0.0438,-0.43788 -0.45979,-0.63493 -0.45979,-0.63493 z"
         id="path33-66-5" /><path
         style="fill:#ffffff;stroke:#6b46f0;stroke-width:0.5;stroke-linecap:round;stroke-linejoin:round;stroke-dasharray:none;stroke-opacity:1;paint-order:normal"
         d="m 158.84838,42.196858 c -0.45978,0.30652 -0.7882,0.67872 -0.50357,1.02903 0.28462,0.35031 -0.59362,1.04515 -0.0657,1.81723 0.18787,0.27475 0.24083,-0.21894 0.43788,-0.63493 0.19705,-0.416 0.85388,-0.43789 0.65683,-1.13851 -0.19705,-0.70062 -0.52546,-1.07282 -0.52546,-1.07282 z"
         id="path34-4-3"
         sodipodi:nodetypes="cssssc" /><path
         style="fill:#ffffff;stroke:#6b46f0;stroke-width:0.5;stroke-linecap:round;stroke-linejoin:round;stroke-dasharray:none;stroke-opacity:1;paint-order:normal"
         d="m 159.59278,42.525268 c -0.66722,0 -0.94139,1.52652 -0.65683,2.05807 0.34659,0.64743 0.61304,0.65683 0.61304,0.65683 0,0 -0.3503,-0.85388 0.0438,-1.20419 0.3941,-0.35031 0,-1.51071 0,-1.51071 z"
         id="path35-0-4"
         sodipodi:nodetypes="sscscs" /><path
         style="fill:#ffffff;stroke:#6b46f0;stroke-width:0.5;stroke-linecap:round;stroke-linejoin:round;stroke-dasharray:none;stroke-opacity:1;paint-order:normal"
         d="m 160.28686,42.456198 c -0.76188,0.54541 -1.0006,1.03718 -0.98368,1.30758 0.0169,0.2704 0.27887,0.85928 0.43576,0.87343 0.15689,0.0141 0.28191,0.11402 0.21632,0.42586 -0.0656,0.31186 -0.26247,0.48048 -0.26745,0.59919 -0.005,0.11871 0.0532,0.36839 0.0532,0.36839 0,0 0.13372,-0.2996 0.31808,-0.55489 0.18437,-0.25531 0.66873,-0.73104 0.66121,-0.93642 -0.008,-0.20539 -0.37761,-0.62374 -0.34075,-0.82819 0.0369,-0.20445 0.45249,-0.39 0.43119,-0.84412 -0.0213,-0.45412 -0.52385,-0.41083 -0.52385,-0.41083 z"
         id="path33-6-0-9" /><path
         style="fill:#ffffff;stroke:#6b46f0;stroke-width:0.5;stroke-linecap:round;stroke-linejoin:round;stroke-dasharray:none;stroke-opacity:1;paint-order:normal"
         d="m 160.83007,42.694628 c -0.38935,0.52096 -0.64557,1.04476 -0.32739,1.25678 0.31818,0.21203 -0.40991,1.31536 0.19772,1.82969 0.21623,0.18301 0.1956,-0.33067 0.3218,-0.83565 0.1262,-0.50498 0.74185,-0.83749 0.45613,-1.43766 -0.28573,-0.60019 -0.64828,-0.81315 -0.64828,-0.81315 z"
         id="path34-6-4-0"
         sodipodi:nodetypes="cssssc" /><path
         style="fill:#ffffff;stroke:#6b46f0;stroke-width:0.5;stroke-linecap:round;stroke-linejoin:round;stroke-dasharray:none;stroke-opacity:1;paint-order:normal"
         d="m 161.57825,42.667388 c -0.62856,0.31576 -0.66876,1.95637 -0.32476,2.3478 0.419,0.47677 0.67136,0.35998 0.67136,0.35998 0,0 -0.45199,-0.67935 -0.13077,-1.21257 0.32122,-0.53322 -0.21582,-1.49521 -0.21582,-1.49521 z"
         id="path35-4-6-20"
         sodipodi:nodetypes="sscscs" /><path
         style="fill:#ffffff;stroke:#6b46f0;stroke-width:0.5;stroke-linecap:round;stroke-linejoin:round;stroke-dasharray:none;stroke-opacity:1;paint-order:normal"
         d="m 162.26982,31.397048 c -0.39778,-0.57282 -0.0459,-1.06824 -0.0459,-1.06824 l 0.18359,0.41801 c 0,0 0.0459,-0.15482 0.0918,-0.26319 0.0459,-0.10837 0.42838,-0.32512 0.42838,-0.32512 l -0.153,0.47994 c 0,0 0.1224,-0.29416 0.27539,-0.37156 0.15299,-0.0774 0.30598,-0.0929 0.30598,-0.0929 l -0.12239,0.43348 c 0,0 0.0611,-0.0929 0.15299,-0.20126 0.0918,-0.10837 0.32128,-0.10837 0.32128,-0.10837 l 0.1071,0.35608 c 0,0 0.0764,-0.13934 0.30599,-0.21675 0.22948,-0.0774 0.73436,-0.031 0.73436,-0.031 l -0.153,0.20126 c 0,0 0.33659,-0.0774 0.84145,0.0155 0.50487,0.0929 1.10154,0.5883 1.10154,0.5883 0,0 0.29069,0.1703 0.47428,0.10837 0.18358,-0.0619 0.15299,-0.0464 0.15299,-0.0464 0,0 -0.0307,0.40252 -0.56608,0.40252 -0.53546,0 -1.45341,-0.44897 -1.49931,-0.37156 -0.0459,0.0774 -0.82616,0.13934 -0.99444,0.12386 -0.1683,-0.0155 -0.39778,-0.23223 -0.39778,-0.23223 0,0 0.0153,0.0929 0.1224,0.20126 0.10708,0.10837 -0.73437,-0.27867 -1.05565,-0.21674 -0.32128,0.0619 -0.38248,0.23222 -0.61196,0.21674 z"
         id="path38-2-1" /><path
         style="fill:#ffffff;stroke:#6b46f0;stroke-width:0.5;stroke-linecap:round;stroke-linejoin:round;stroke-dasharray:none;stroke-opacity:1;paint-order:normal"
         d="m 159.71222,30.131748 c 0.34829,-0.42627 0.15731,-1.02894 0.15731,-1.02894 l -0.17869,0.34694 c 0,0 -0.0145,-0.16682 -0.0343,-0.2882 -0.0199,-0.12139 -0.26491,-0.46187 -0.26491,-0.46187 l 0.0519,0.52068 c 0,0 -0.0521,-0.32877 -0.15129,-0.45587 -0.099,-0.12714 -0.20553,-0.1937 -0.20553,-0.1937 l 0.0359,0.46494 c 0,0 -0.0325,-0.11138 -0.0846,-0.2482 -0.0522,-0.13688 -0.21451,-0.21404 -0.21451,-0.21404 l -0.11734,0.31214 c 0,0 -0.0379,-0.16192 -0.19108,-0.3148 -0.15321,-0.1528 -0.51568,-0.27727 -0.51568,-0.27727 l 0.0846,0.24819 c 0,0 -0.22898,-0.1888 -0.59686,-0.26776 -0.36789,-0.079 -0.84777,0.20488 -0.84777,0.20488 0,0 -0.22547,0.0688 -0.34807,-0.0538 -0.1226,-0.12219 -0.10282,-0.0969 -0.10282,-0.0969 0,0 -0.0256,0.40386 0.35324,0.58389 0.37868,0.18003 1.08031,0.0498 1.10373,0.14118 0.0233,0.0911 0.56794,0.41402 0.68877,0.45543 0.12083,0.0413 0.30846,-0.0933 0.30846,-0.0933 0,0 -0.0217,0.0857 -0.1101,0.15564 -0.0884,0.0699 0.55189,-0.0255 0.77185,0.14301 0.21996,0.16862 0.24333,0.35564 0.40743,0.41767 z"
         id="path38-3-6-9" /><path
         style="fill:#ffffff;stroke:#6b46f0;stroke-width:0.5;stroke-linecap:round;stroke-linejoin:round;stroke-dasharray:none;stroke-opacity:1;paint-order:normal"
         d="m 157.13946,32.070708 c 0,0 0.0982,0.44805 0.38078,0.5683 0.28259,0.12028 1.28787,-0.0383 1.35737,-0.0481"
         id="path41-7-6" /><path
         style="fill:none;stroke:#6b46f0;stroke-width:0.5;stroke-linecap:round;stroke-linejoin:round;stroke-dasharray:none;stroke-opacity:1;paint-order:normal"
         d="m 159.01561,31.932178 c 0,0 -0.50182,-0.80002 -0.95328,-0.86111 -0.35209,-0.0476 -0.83425,0.24126 -0.83425,0.24126"
         id="path42-5-21"
         sodipodi:nodetypes="csc" /><path
         style="fill:#ffffff;stroke:#6b46f0;stroke-width:0.5;stroke-linecap:round;stroke-linejoin:round;stroke-dasharray:none;stroke-opacity:1;paint-order:normal"
         d="m 170.8848,43.532398 c 0,0 0.6383,-0.0568 0.7663,0.59663 0.11556,0.58996 0.7797,1.50021 1.7406,2.55616 0,0 -1.38482,1.5764 -3.50857,2.93386 -2.11387,1.35114 -7.22513,3.28415 -7.22513,3.28415 -0.80166,-2.65249 -1.054,-2.82649 -1.26989,-3.8972 -0.1489,-0.73851 0.0219,-0.63494 0.0219,-0.63494 0,0 5.67063,-1.05092 6.74346,-1.57639 1.07282,-0.52547 2.2475,-1.34885 2.49595,-1.86102 0.35892,-0.73989 0.36152,-1.02131 0.23536,-1.40125 z"
         id="path44-6-2"
         sodipodi:nodetypes="cscscscsscc" /><g
         id="g47-9-0"
         transform="matrix(1.1398118,0,0,1.3117446,41.455156,-130.11523)"
         style="fill:#6b46f0;fill-opacity:1;stroke:#6b46f0;stroke-width:0.408911;stroke-dasharray:none;stroke-opacity:1"><path
           style="fill:#6b46f0;fill-opacity:1;stroke:#6b46f0;stroke-width:0.408911;stroke-linecap:round;stroke-linejoin:round;stroke-dasharray:none;stroke-opacity:1;paint-order:normal"
           d="m 103.61999,136.73921 c -0.7663,-0.61379 -1.3246,-1.1666 -1.93765,-1.09964 -0.61304,0.067 -0.37229,3.03199 0.44879,3.23481 0.82104,0.2028 1.67491,-0.69509 1.77344,-0.856 0.0985,-0.1609 0.16421,-0.42632 0.0876,-0.67655 -0.0766,-0.25022 -0.37221,-0.60262 -0.37221,-0.60262 z"
           id="path47-0-8-7"
           sodipodi:nodetypes="csssscc" /><ellipse
           style="opacity:1;fill:#6b46f0;fill-opacity:1;stroke:#6b46f0;stroke-width:0.408911;stroke-linecap:round;stroke-linejoin:round;stroke-dasharray:none;stroke-opacity:1;paint-order:normal"
           id="path46-7-3"
           cx="104.60577"
           cy="137.60577"
           rx="0.96882552"
           ry="0.89486557" /><path
           style="opacity:1;fill:#6b46f0;fill-opacity:1;stroke:#6b46f0;stroke-width:0.408911;stroke-linecap:round;stroke-linejoin:round;stroke-dasharray:none;stroke-opacity:1;paint-order:normal"
           d="m 105.44335,137.16817 c 0.93194,-0.44883 1.61091,-0.89767 2.35647,-0.61304 0.74554,0.28463 0.45275,3.62352 -0.54581,3.57973 -0.9985,-0.0438 -2.03693,-1.3684 -2.15676,-1.58735 -0.11979,-0.21894 -0.1997,-0.54735 -0.10653,-0.81008 0.0931,-0.26273 0.45266,-0.56926 0.45266,-0.56926 z"
           id="path47-2-1"
           sodipodi:nodetypes="csssscc" /></g><path
         style="fill:#ffffff;stroke:#6b46f0;stroke-width:0.5;stroke-linecap:round;stroke-linejoin:round;stroke-dasharray:none;stroke-opacity:1;paint-order:normal"
         d="m 133.34846,68.659168 c -0.70841,1.42448 -3.31307,2.10551 -3.31307,2.10551 1.54043,0.85849 2.84927,1.81623 4.92316,2.4461 0,0 0.82806,-0.63627 1.57913,-2.41513 0.5883,-1.39336 0.49541,-2.1984 0.49541,-2.1984 z"
         id="path48-8-1"
         sodipodi:nodetypes="cccscc" /><path
         style="fill:#ffffff;stroke:#6b46f0;stroke-width:0.5;stroke-linecap:round;stroke-linejoin:round;stroke-dasharray:none;stroke-opacity:1;paint-order:normal"
         d="m 130.12828,70.609858 c 0,0 -0.68119,0.71216 -1.64106,0.68119 -0.95986,-0.031 -1.33142,-0.34059 -1.33142,-0.34059 0,0 2.4461,3.62271 2.87959,3.87041 0.43349,0.24771 2.60092,-0.61926 2.60092,-0.61926 z"
         id="path49-2-9" /><path
         style="fill:#ffffff;stroke:#6b46f0;stroke-width:0.5;stroke-linecap:round;stroke-linejoin:round;stroke-dasharray:none;stroke-opacity:1;paint-order:normal"
         d="m 139.38428,59.646658 c 0.0876,-4.81676 0.10107,-6.2444 -0.28398,-7.86459 -0.38505,-1.62018 -4.98318,-2.37574 -6.75978,-2.36459 -1.7766,0.0112 -2.28891,-2.01428 -6.46029,-2.01428 -4.17139,0 -4.79862,1.73793 -6.41752,1.75155 -1.61889,0.0136 -6.42651,1.2336 -6.71699,2.89005 -0.52386,2.98719 -0.24771,7.4705 -0.24771,7.4705 0,0 2.01428,2.10185 5.34222,3.109 3.32795,1.00714 11.42886,1.1385 14.62544,0.52546 1.23732,-0.2373 5.80518,-0.88736 6.91862,-3.5031 z"
         id="path50-9-0"
         sodipodi:nodetypes="cszzzscsscc" /><path
         id="path51-4-9-5"
         style="fill:#ffffff;stroke:#6b46f0;stroke-width:0.5;stroke-linecap:round;stroke-linejoin:round;stroke-dasharray:none;stroke-opacity:1;paint-order:normal"
         d="m 125.3664,44.498798 c -0.49174,0.0137 -1.1046,0.10843 -1.60485,0.43346 -1.01219,0.65755 -0.66721,0.82256 -0.62121,1.0339 0.046,0.21136 0.80556,0.65707 0.85157,0.79798 0.046,0.14091 0.85077,0.4699 0.82776,0.7517 -0.023,0.2818 0.62095,0.35199 0.98902,0.37546 0.36807,-0.0235 1.01201,-0.0936 0.98901,-0.37546 -0.023,-0.2818 0.78176,-0.61079 0.82776,-0.7517 0.046,-0.14092 0.80556,-0.58662 0.85157,-0.79798 0.046,-0.21134 0.39098,-0.37635 -0.62121,-1.0339 -0.50024,-0.32501 -1.11311,-0.41982 -1.60484,-0.43346 -0.16391,-0.004 -0.31388,2.6e-4 -0.44229,0.008 -0.12842,-0.008 -0.27838,-0.0117 -0.44229,-0.008 z" /><path
         style="fill:#1a5fb4;stroke:#6b46f0;stroke-width:0.5;stroke-linecap:round;stroke-linejoin:round;stroke-dasharray:none;stroke-opacity:1;paint-order:normal"
         d="m 161.27865,48.349168 -0.28463,0.56925 -0.24084,-0.45978"
         id="path53-6-6" /><path
         style="fill:none;stroke:#6b46f0;stroke-width:0.5;stroke-linecap:round;stroke-linejoin:round;stroke-dasharray:none;stroke-opacity:1;paint-order:normal"
         d="m 160.92834,48.852738 c 0,0 -2.07996,3.98477 -2.7149,6.15232 -0.63494,2.16754 -1.1604,4.6416 -1.1604,4.6416"
         id="path54-0-7" /><ellipse
         style="fill:none;stroke:#6b46f0;stroke-width:0.5;stroke-linecap:round;stroke-linejoin:round;stroke-dasharray:none;stroke-opacity:1;paint-order:normal"
         id="path55-2-7"
         cx="159.18773"
         cy="54.775162"
         rx="0.36125696"
         ry="0.38315132" /><ellipse
         style="fill:#6b46f0;fill-opacity:1;stroke:#6b46f0;stroke-width:0.5;stroke-linecap:round;stroke-linejoin:round;stroke-dasharray:none;stroke-opacity:1;paint-order:normal"
         id="path55-8-7-40"
         cx="168.06337"
         cy="15.992545"
         rx="0.33936262"
         ry="0.52014321"
         transform="rotate(16.100723)" /><ellipse
         style="fill:#6b46f0;fill-opacity:1;stroke:#6b46f0;stroke-width:0.5;stroke-linecap:round;stroke-linejoin:round;stroke-dasharray:none;stroke-opacity:1;paint-order:normal"
         id="path55-8-0-6-6"
         cx="159.90956"
         cy="56.14946"
         rx="0.33936262"
         ry="0.52014321"
         transform="rotate(4.2248004)" /><ellipse
         style="fill:#6b46f0;fill-opacity:1;stroke:#6b46f0;stroke-width:0.5;stroke-linecap:round;stroke-linejoin:round;stroke-dasharray:none;stroke-opacity:1;paint-order:normal"
         id="path55-8-05-1-4"
         cx="160.02673"
         cy="62.527809"
         rx="0.33936262"
         ry="0.52014321"
         transform="rotate(4.0544111)" /><ellipse
         style="fill:#6b46f0;fill-opacity:1;stroke:#6b46f0;stroke-width:0.5;stroke-linecap:round;stroke-linejoin:round;stroke-dasharray:none;stroke-opacity:1;paint-order:normal"
         id="path55-8-2-3-7"
         cx="163.80168"
         cy="59.920769"
         rx="0.33936262"
         ry="0.52014321"
         transform="rotate(7.0183599)" /><path
         style="fill:none;stroke:#6b46f0;stroke-width:0.5;stroke-linecap:round;stroke-linejoin:round;stroke-dasharray:none;stroke-opacity:1;paint-order:normal"
         d="m 160.3153,54.216858 c 0,0 -0.70062,1.81723 -0.81009,2.36459"
         id="path56-2-4" /><path
         style="fill:none;stroke:#6b46f0;stroke-width:0.5;stroke-linecap:round;stroke-linejoin:round;stroke-dasharray:none;stroke-opacity:1;paint-order:normal"
         d="m 156.85599,59.909388 c -0.17516,0.17516 -2.40839,5.29844 -2.71491,9.37079 -0.30652,4.07235 0.48168,7.61924 0,10.42171 -0.48167,2.80248 -1.22608,2.01428 -1.22608,2.62733 0,0.61304 0.30652,1.48881 0.30652,1.48881"
         id="path57-1-8" /><path
         style="fill:none;stroke:#6b46f0;stroke-width:0.5;stroke-linecap:round;stroke-linejoin:round;stroke-dasharray:none;stroke-opacity:1;paint-order:normal"
         d="m 162.88691,32.904075 c 0,0 -0.1703,0.46445 -0.0464,0.71216 0.12385,0.2477 0.40252,0.44896 0.54186,0.43348 0.13933,-0.0155 0.60378,-0.0155 0.7586,-0.20126 0.15482,-0.18578 0.29415,-0.47993 0.20126,-0.74312 0,0 -0.25776,-0.51291 -0.46576,-0.51291 -0.20799,0 -0.53641,0 -0.66778,0.0438 -0.13136,0.0438 -0.32178,0.26786 -0.32178,0.26786 z"
         id="path58-59-5" /><path
         style="fill:none;stroke:#6b46f0;stroke-width:0.5;stroke-linecap:round;stroke-linejoin:round;stroke-dasharray:none;stroke-opacity:1;paint-order:normal"
         d="m 157.68552,31.658244 c 0,0 -0.13857,0.40026 -0.0378,0.61374 0.10078,0.21347 0.32752,0.38691 0.4409,0.37357 0.11337,-0.0134 0.49128,-0.0134 0.61725,-0.17344 0.12597,-0.16011 0.23934,-0.41361 0.16376,-0.64042 0,0 -0.20973,-0.44203 -0.37898,-0.44203 -0.16923,0 -0.43646,0 -0.54335,0.0378 -0.10688,0.0378 -0.26182,0.23084 -0.26182,0.23084 z"
         id="path58-5-9-82" /></g></g></svg>
