<?xml version="1.0" encoding="UTF-8" standalone="no"?>
<!-- Created with Inkscape (http://www.inkscape.org/) -->

<svg
   width="100mm"
   height="100mm"
   viewBox="0 0 100 100"
   version="1.1"
   id="svg1"
   xml:space="preserve"
   inkscape:version="1.4.3 (0d15f75042, 2025-12-25)"
   sodipodi:docname="logo.svg"
   xmlns:inkscape="http://www.inkscape.org/namespaces/inkscape"
   xmlns:sodipodi="http://sodipodi.sourceforge.net/DTD/sodipodi-0.dtd"
   xmlns="http://www.w3.org/2000/svg"
   xmlns:svg="http://www.w3.org/2000/svg"><sodipodi:namedview
     id="namedview1"
     pagecolor="#ffffff"
     bordercolor="#000000"
     borderopacity="0.25"
     inkscape:showpageshadow="2"
     inkscape:pageopacity="0.0"
     inkscape:pagecheckerboard="0"
     inkscape:deskcolor="#d1d1d1"
     inkscape:document-units="mm"
     showguides="true"
     inkscape:zoom="0.75528389"
     inkscape:cx="269.43511"
     inkscape:cy="356.81947"
     inkscape:window-width="1269"
     inkscape:window-height="1406"
     inkscape:window-x="0"
     inkscape:window-y="0"
     inkscape:window-maximized="1"
     inkscape:current-layer="layer1"><inkscape:page
       x="0"
       y="0"
       width="100"
       height="100"
       id="page67"
       margin="0"
       bleed="0" /></sodipodi:namedview><defs
     id="defs1" />
     <style>path { fill: #7c5cff; opacity: 0.2; }</style>
     <g
     inkscape:label="Layer 1"
     inkscape:groupmode="layer"
     id="layer1"
     transform="translate(-220.00001)"><path
       id="path62-9"
       style="fill-opacity:1;stroke:none;stroke-width:0.499999;stroke-linecap:round;stroke-linejoin:round;stroke-dasharray:none;stroke-opacity:1;paint-order:normal"
       d="m 234.63521,8.1984432 -1e-4,9.1e-5 c -0.26668,-0.0076 -0.51514,0.01914 -0.72926,0.04973 -0.42823,0.06118 -0.68057,0.4588067 -0.77998,0.6346867 -0.0994,0.1758797 -0.37478,0.5582497 -0.37478,0.5582497 0,0 0.0189,0.1011597 0.0347,0.2105397 l -3.5e-4,-3.5e-4 -0.26378,0.04205 7e-4,0.01345 -0.0197,-0.0077 c -0.009,0.03182 -0.0179,0.02361 -0.0269,0.105134 0.006,0.130605 -7e-4,0.2738287 0.0326,0.3727987 0.0266,0.09511 0.0911,0.135855 0.12228,0.175887 l 0.0188,-6.99e-4 -0.005,0.09052 0.0612,0.649938 -0.0612,0.09945 c 0,0 0.008,0.252294 -0.0153,0.359351 -0.0229,0.107057 0.0229,0.34416 0.0153,0.420629 -0.008,0.07647 0.18358,0.298238 0.22182,0.32118 0.0382,0.02294 0.21405,0.03817 0.21405,0.03817 l -0.0458,0.09178 c 0,0 -0.13001,0.06117 -0.23707,0.114701 -0.10706,0.05353 -0.84116,1.062915 -1.07057,1.33056 -0.22941,0.267643 -0.92531,2.439378 -1.02472,2.492907 -0.0994,0.05353 -1.34581,0.114789 -1.34581,0.114789 l 0.0152,-0.05361 c 0,0 -0.56588,0.01535 -0.61176,0.01535 -0.0459,0 0.13004,-0.841166 0.13004,-0.841166 0,0 0.22172,-0.03059 0.59642,-0.145293 0.3747,-0.114704 0.55825,-0.420562 0.55825,-0.573502 0,-0.152939 -0.25999,-0.298257 -0.25999,-0.298257 0,0 0.0153,-0.917676 -0.0689,-1.085909 -0.0841,-0.168233 -0.54295,-0.305823 -0.81824,-0.359352 -0.27529,-0.05353 -0.76468,-0.191218 -0.86409,-0.275335 -0.0994,-0.08412 -0.39762,-0.129952 -0.39762,-0.129952 0,0 0.22939,-0.214112 0.25233,-0.259994 0.0229,-0.04588 -0.17589,-0.237071 -0.17589,-0.237071 0,0 -0.38998,-0.01531 -0.48939,-0.0077 -0.0994,0.0076 -0.22179,0.09175 -0.26767,0.2294 -0.0459,0.137646 0.26,0.252413 0.26,0.252413 0,0 -0.2294,0.06877 -0.34411,0.09936 -0.1147,0.03059 -0.42822,0.2294 -0.51998,0.2294 -0.0918,0 -0.55819,0.114753 -0.71113,0.160635 -0.15294,0.04588 -0.4665,0.244685 -0.50473,0.313508 -0.0382,0.06882 -0.0689,1.070568 -0.0689,1.070568 0,0 -0.24462,0.09944 -0.20639,0.32885 0.0382,0.229409 0.19118,0.351685 0.58118,0.527567 0.38999,0.17588 0.84874,0.237072 0.84874,0.237072 0,0 0.41297,0.305941 0.73414,0.542999 0.32117,0.237056 0.58117,0.55058 0.58117,0.55058 l 0.55825,0.76464 0.40529,-0.07644 c 0,0 0.25233,0.02291 0.4588,0.07644 0.20647,0.05353 0.89467,0.130041 1.52937,0.130041 0.6347,0 1.09349,-0.244741 1.09349,-0.244741 l 0.008,0.757057 c 0,0 -0.0532,0.169487 -0.009,0.342748 l -0.067,0.0703 0.16818,1.896474 1.16236,4.462679 c 0,0 0.46853,2.297473 0.49591,2.8656 -0.0461,-0.0036 -0.0909,0.0097 -0.1341,0.06205 -0.10715,0.129752 -0.90272,0.417785 -1.14673,0.505331 -0.24401,0.08754 -0.51151,0.358101 -0.51151,0.358101 l -0.0126,0.199979 c 0,0 0.0984,0.215634 0.2053,0.284419 0.10688,0.06879 0.46961,0.169773 0.62458,0.178581 0.11816,0.0067 0.3172,-0.02799 0.52297,-0.07642 -0.14809,0.122741 -0.28708,0.228076 -0.38047,0.28398 -0.28398,0.16999 -0.56015,0.506859 -0.56015,0.506859 l -0.0814,0.243973 c 0,0 0.18806,0.24635 0.34329,0.304026 0.15523,0.05769 0.64285,0.08534 0.84099,0.05357 0.36485,-0.0585 1.25354,-0.554455 1.46276,-0.702769 0.20923,-0.148315 0.58718,-0.263681 0.76266,-0.32136 0.17548,-0.05768 0.35863,-0.176132 0.35863,-0.176132 l -0.004,-0.183484 -0.0403,-0.0091 c 0,0 0.05,-0.19163 -0.058,-0.653051 l -0.21929,-0.0386 c 0.22286,-0.0089 0.42839,-0.03704 0.46837,-0.114589 0,0 -0.18256,-0.01469 -0.0764,-1.116402 0.1052,-1.092151 -0.12354,-2.203649 -0.13094,-2.683294 -0.007,-0.451049 -0.004,-1.331145 -0.11778,-3.056076 0.15793,-0.79025 0.27721,-1.631303 0.0714,-2.479922 0.0133,-0.0109 0.02,-0.01715 0.02,-0.01715 l -0.0422,-0.378548 c 0,0 0.45123,0.107073 0.6577,0.09178 0.20647,-0.0153 0.87167,-0.175887 0.87167,-0.175887 0,0 0.79529,-0.443563 0.84117,-0.68062 0.0459,-0.237056 0.17595,-0.611714 0.1683,-0.711124 -0.008,-0.09941 -0.5965,-2.393546 -0.68062,-2.944128 -0.0841,-0.550582 -0.31351,-0.772273 -0.4588,-0.963448 -0.14529,-0.191173 -0.79532,-0.443551 -0.79532,-0.443551 l -0.0688,-0.06119 -0.33643,-0.244743 -0.0536,-0.04584 -0.21405,-0.259994 -0.11471,-0.259994 -0.0842,-0.03826 c 0,0 -0.0229,-0.191145 -0.0229,-0.367023 0,-0.175882 0.2141,-0.428286 0.57351,-0.917692 0.3594,-0.489407 0.31354,-0.9405637 0.26766,-1.4452624 -0.0459,-0.5047007 -0.0763,-0.7493297 -0.64985,-0.9634464 -0.28676,-0.107057 -0.57168,-0.149199 -0.83837,-0.156845 z m -1.83115,1.6060761 c 0.003,0.04078 0.004,0.07499 7e-4,0.09548 -0.0123,0.07409 -0.1045,0.2976967 -0.13952,0.3811017 l -0.0211,0.02418 c -0.0236,-0.02651 -0.0682,-0.05908 -0.0918,-0.139518 -0.0223,-0.05374 -0.0191,-0.1684997 -0.019,-0.2759657 z m 3.20087,6.9166767 0.0879,0.145293 0.16064,0.210269 0.0993,0.21406 -0.69199,0.359443 0.13762,-0.420538 z"
       sodipodi:nodetypes="ccsscccccccccccccscsccsssccscsscssscscsscsssscsscscccsscccccccssccsscsccssssccccccssccccscsssscccccccsssscccccccccccccccc" /><path
       id="path62-9-5"
       style="fill-opacity:1;stroke:none;stroke-width:0.499999;stroke-linecap:round;stroke-linejoin:round;stroke-dasharray:none;stroke-opacity:1;paint-order:normal"
       d="m 252.44321,31.706791 1e-4,9.1e-5 c 0.26668,-0.0076 0.51514,0.01914 0.72926,0.04973 0.42823,0.06118 0.68057,0.458807 0.77998,0.634687 0.0994,0.17588 0.37478,0.55825 0.37478,0.55825 0,0 -0.0189,0.10116 -0.0347,0.21054 l 3.5e-4,-3.5e-4 0.26378,0.04205 -7e-4,0.01345 0.0197,-0.0077 c 0.009,0.03182 0.0179,0.02361 0.0269,0.105134 -0.006,0.130605 7e-4,0.273829 -0.0326,0.372799 -0.0266,0.09511 -0.0911,0.135855 -0.12228,0.175887 l -0.0188,-6.99e-4 0.005,0.09052 -0.0612,0.649938 0.0612,0.09945 c 0,0 -0.008,0.252294 0.0153,0.359351 0.0229,0.107057 -0.0229,0.34416 -0.0153,0.420629 0.008,0.07647 -0.18358,0.298238 -0.22182,0.32118 -0.0382,0.02294 -0.21405,0.03817 -0.21405,0.03817 l 0.0458,0.09178 c 0,0 0.13001,0.06117 0.23707,0.114701 0.10706,0.05353 0.84116,1.062915 1.07057,1.33056 0.22941,0.267643 0.92531,2.439378 1.02472,2.492907 0.0994,0.05353 1.34581,0.114789 1.34581,0.114789 l -0.0152,-0.05361 c 0,0 0.56588,0.01535 0.61176,0.01535 0.0459,0 -0.13004,-0.841166 -0.13004,-0.841166 0,0 -0.22172,-0.03059 -0.59642,-0.145293 -0.3747,-0.114704 -0.55825,-0.420562 -0.55825,-0.573502 0,-0.152939 0.25999,-0.298257 0.25999,-0.298257 0,0 -0.0153,-0.917676 0.0689,-1.085909 0.0841,-0.168233 0.54295,-0.305823 0.81824,-0.359352 0.27529,-0.05353 0.76468,-0.191218 0.86409,-0.275335 0.0994,-0.08412 0.39762,-0.129952 0.39762,-0.129952 0,0 -0.22939,-0.214112 -0.25233,-0.259994 -0.0229,-0.04588 0.17589,-0.237071 0.17589,-0.237071 0,0 0.38998,-0.01531 0.48939,-0.0077 0.0994,0.0076 0.22179,0.09175 0.26767,0.2294 0.0459,0.137646 -0.26,0.252413 -0.26,0.252413 0,0 0.2294,0.06877 0.34411,0.09936 0.1147,0.03059 0.42822,0.2294 0.51998,0.2294 0.0918,0 0.55819,0.114753 0.71113,0.160635 0.15294,0.04588 0.4665,0.244685 0.50473,0.313508 0.0382,0.06882 0.0689,1.070568 0.0689,1.070568 0,0 0.24462,0.09944 0.20639,0.32885 -0.0382,0.229409 -0.19118,0.351685 -0.58118,0.527567 -0.38999,0.17588 -0.84874,0.237072 -0.84874,0.237072 0,0 -0.41297,0.305941 -0.73414,0.542999 -0.32117,0.237056 -0.58117,0.55058 -0.58117,0.55058 l -0.55825,0.76464 -0.40529,-0.07644 c 0,0 -0.25233,0.02291 -0.4588,0.07644 -0.20647,0.05353 -0.89467,0.130041 -1.52937,0.130041 -0.6347,0 -1.09349,-0.244741 -1.09349,-0.244741 l -0.008,0.757057 c 0,0 0.0532,0.169487 0.009,0.342748 l 0.067,0.0703 -0.16818,1.896474 -1.16236,4.462679 c 0,0 -0.46853,2.297473 -0.49591,2.8656 0.0461,-0.0036 0.0909,0.0097 0.1341,0.06205 0.10715,0.129752 0.90272,0.417785 1.14673,0.505331 0.24401,0.08754 0.51151,0.358101 0.51151,0.358101 l 0.0126,0.199979 c 0,0 -0.0984,0.215634 -0.2053,0.284419 -0.10688,0.06879 -0.46961,0.169773 -0.62458,0.178581 -0.11816,0.0067 -0.3172,-0.02799 -0.52297,-0.07642 0.14809,0.122741 0.28708,0.228076 0.38047,0.28398 0.28398,0.16999 0.56015,0.506859 0.56015,0.506859 l 0.0814,0.243973 c 0,0 -0.18806,0.24635 -0.34329,0.304026 -0.15523,0.05769 -0.64285,0.08534 -0.84099,0.05357 -0.36485,-0.0585 -1.25354,-0.554455 -1.46276,-0.702769 -0.20923,-0.148315 -0.58718,-0.263681 -0.76266,-0.32136 -0.17548,-0.05768 -0.35863,-0.176132 -0.35863,-0.176132 l 0.004,-0.183484 0.0403,-0.0091 c 0,0 -0.05,-0.19163 0.058,-0.653051 l 0.21929,-0.0386 c -0.22286,-0.0089 -0.42839,-0.03704 -0.46837,-0.114589 0,0 0.18256,-0.01469 0.0764,-1.116402 -0.1052,-1.092151 0.12354,-2.203649 0.13094,-2.683294 0.007,-0.451049 0.004,-1.331145 0.11778,-3.056076 -0.15793,-0.79025 -0.27721,-1.631303 -0.0714,-2.479922 -0.0133,-0.0109 -0.02,-0.01715 -0.02,-0.01715 l 0.0422,-0.378548 c 0,0 -0.45123,0.107073 -0.6577,0.09178 -0.20647,-0.0153 -0.87167,-0.175887 -0.87167,-0.175887 0,0 -0.79529,-0.443563 -0.84117,-0.68062 -0.0459,-0.237056 -0.17595,-0.611714 -0.1683,-0.711124 0.008,-0.09941 0.5965,-2.393546 0.68062,-2.944128 0.0841,-0.550582 0.31351,-0.772273 0.4588,-0.963448 0.14529,-0.191173 0.79532,-0.443551 0.79532,-0.443551 l 0.0688,-0.06119 0.33643,-0.244743 0.0536,-0.04584 0.21405,-0.259994 0.11471,-0.259994 0.0842,-0.03826 c 0,0 0.0229,-0.191145 0.0229,-0.367023 0,-0.175882 -0.2141,-0.428286 -0.57351,-0.917692 -0.3594,-0.489407 -0.31354,-0.940564 -0.26766,-1.445263 0.0459,-0.504701 0.0763,-0.74933 0.64985,-0.963447 0.28676,-0.107057 0.57168,-0.149199 0.83837,-0.156845 z m 1.83115,1.606077 c -0.003,0.04078 -0.004,0.07499 -7e-4,0.09548 0.0123,0.07409 0.1045,0.297697 0.13952,0.381102 l 0.0211,0.02418 c 0.0236,-0.02651 0.0682,-0.05908 0.0918,-0.139518 0.0223,-0.05374 0.0191,-0.1685 0.019,-0.275966 z m -3.20087,6.916677 -0.0879,0.145293 -0.16064,0.210269 -0.0993,0.21406 0.69199,0.359443 -0.13762,-0.420538 z"
       sodipodi:nodetypes="ccsscccccccccccccscsccsssccscsscssscscsscsssscsscscccsscccccccssccsscsccssssccccccssccccscsssscccccccsssscccccccccccccccc" /><path
       id="path62-9-8"
       style="fill-opacity:1;stroke:none;stroke-width:0.499999;stroke-linecap:round;stroke-linejoin:round;stroke-dasharray:none;stroke-opacity:1;paint-order:normal"
       d="m 237.29462,55.183206 -1e-4,9.1e-5 c -0.26668,-0.0076 -0.51514,0.01914 -0.72926,0.04973 -0.42823,0.06118 -0.68057,0.458807 -0.77998,0.634687 -0.0994,0.17588 -0.37478,0.55825 -0.37478,0.55825 0,0 0.0189,0.10116 0.0347,0.21054 l -3.5e-4,-3.5e-4 -0.26378,0.04205 7e-4,0.01345 -0.0197,-0.0077 c -0.009,0.03182 -0.0179,0.02361 -0.0269,0.105134 0.006,0.130605 -7e-4,0.273829 0.0326,0.372799 0.0266,0.09511 0.0911,0.135855 0.12228,0.175887 l 0.0188,-6.99e-4 -0.005,0.09052 0.0612,0.649938 -0.0612,0.09945 c 0,0 0.008,0.252294 -0.0153,0.359351 -0.0229,0.107057 0.0229,0.34416 0.0153,0.420629 -0.008,0.07647 0.18358,0.298238 0.22182,0.32118 0.0382,0.02294 0.21405,0.03817 0.21405,0.03817 l -0.0458,0.09178 c 0,0 -0.13001,0.06117 -0.23707,0.114701 -0.10706,0.05353 -0.84116,1.062915 -1.07057,1.33056 -0.22941,0.267643 -0.92531,2.439378 -1.02472,2.492907 -0.0994,0.05353 -1.34581,0.114789 -1.34581,0.114789 l 0.0152,-0.05361 c 0,0 -0.56588,0.01535 -0.61176,0.01535 -0.0459,0 0.13004,-0.841166 0.13004,-0.841166 0,0 0.22172,-0.03059 0.59642,-0.145293 0.3747,-0.114704 0.55825,-0.420562 0.55825,-0.573502 0,-0.152939 -0.25999,-0.298257 -0.25999,-0.298257 0,0 0.0153,-0.917676 -0.0689,-1.085909 -0.0841,-0.168233 -0.54295,-0.305823 -0.81824,-0.359352 -0.27529,-0.05353 -0.76468,-0.191218 -0.86409,-0.275335 -0.0994,-0.08412 -0.39762,-0.129952 -0.39762,-0.129952 0,0 0.22939,-0.214112 0.25233,-0.259994 0.0229,-0.04588 -0.17589,-0.237071 -0.17589,-0.237071 0,0 -0.38998,-0.01531 -0.48939,-0.0077 -0.0994,0.0076 -0.22179,0.09175 -0.26767,0.2294 -0.0459,0.137646 0.26,0.252413 0.26,0.252413 0,0 -0.2294,0.06877 -0.34411,0.09936 -0.1147,0.03059 -0.42822,0.2294 -0.51998,0.2294 -0.0918,0 -0.55819,0.114753 -0.71113,0.160635 -0.15294,0.04588 -0.4665,0.244685 -0.50473,0.313508 -0.0382,0.06882 -0.0689,1.070568 -0.0689,1.070568 0,0 -0.24462,0.09944 -0.20639,0.32885 0.0382,0.229409 0.19118,0.351685 0.58118,0.527567 0.38999,0.17588 0.84874,0.237072 0.84874,0.237072 0,0 0.41297,0.305941 0.73414,0.542999 0.32117,0.237056 0.58117,0.55058 0.58117,0.55058 l 0.55825,0.76464 0.40529,-0.07644 c 0,0 0.25233,0.02291 0.4588,0.07644 0.20647,0.05353 0.89467,0.130041 1.52937,0.130041 0.6347,0 1.09349,-0.244741 1.09349,-0.244741 l 0.008,0.757057 c 0,0 -0.0532,0.169487 -0.009,0.342748 l -0.067,0.0703 0.16818,1.896474 1.16236,4.462679 c 0,0 0.46853,2.297473 0.49591,2.8656 -0.0461,-0.0036 -0.0909,0.0097 -0.1341,0.06205 -0.10715,0.129752 -0.90272,0.417785 -1.14673,0.505331 -0.24401,0.08754 -0.51151,0.358101 -0.51151,0.358101 l -0.0126,0.199979 c 0,0 0.0984,0.215634 0.2053,0.284419 0.10688,0.06879 0.46961,0.169773 0.62458,0.178581 0.11816,0.0067 0.3172,-0.02799 0.52297,-0.07642 -0.14809,0.122741 -0.28708,0.228076 -0.38047,0.28398 -0.28398,0.16999 -0.56015,0.506859 -0.56015,0.506859 l -0.0814,0.243973 c 0,0 0.18806,0.24635 0.34329,0.304026 0.15523,0.05769 0.64285,0.08534 0.84099,0.05357 0.36485,-0.0585 1.25354,-0.554455 1.46276,-0.702769 0.20923,-0.148315 0.58718,-0.263681 0.76266,-0.32136 0.17548,-0.05768 0.35863,-0.176132 0.35863,-0.176132 l -0.004,-0.183484 -0.0403,-0.0091 c 0,0 0.05,-0.19163 -0.058,-0.653051 l -0.21929,-0.0386 c 0.22286,-0.0089 0.42839,-0.03704 0.46837,-0.114589 0,0 -0.18256,-0.01469 -0.0764,-1.116402 0.1052,-1.092151 -0.12354,-2.203649 -0.13094,-2.683294 -0.007,-0.451049 -0.004,-1.331145 -0.11778,-3.056076 0.15793,-0.79025 0.27721,-1.631303 0.0714,-2.479922 0.0133,-0.0109 0.02,-0.01715 0.02,-0.01715 l -0.0422,-0.378548 c 0,0 0.45123,0.107073 0.6577,0.09178 0.20647,-0.0153 0.87167,-0.175887 0.87167,-0.175887 0,0 0.79529,-0.443563 0.84117,-0.68062 0.0459,-0.237056 0.17595,-0.611714 0.1683,-0.711124 -0.008,-0.09941 -0.5965,-2.393546 -0.68062,-2.944128 -0.0841,-0.550582 -0.31351,-0.772273 -0.4588,-0.963448 -0.14529,-0.191173 -0.79532,-0.443551 -0.79532,-0.443551 l -0.0688,-0.06119 -0.33643,-0.244743 -0.0536,-0.04584 -0.21405,-0.259994 -0.11471,-0.259994 -0.0842,-0.03826 c 0,0 -0.0229,-0.191145 -0.0229,-0.367023 0,-0.175882 0.2141,-0.428286 0.57351,-0.917692 0.3594,-0.489407 0.31354,-0.940564 0.26766,-1.445263 -0.0459,-0.504701 -0.0763,-0.74933 -0.64985,-0.963447 -0.28676,-0.107057 -0.57168,-0.149199 -0.83837,-0.156845 z m -1.83115,1.606077 c 0.003,0.04078 0.004,0.07499 7e-4,0.09548 -0.0123,0.07409 -0.1045,0.297697 -0.13952,0.381102 l -0.0211,0.02418 c -0.0236,-0.02651 -0.0682,-0.05908 -0.0918,-0.139518 -0.0223,-0.05374 -0.0191,-0.1685 -0.019,-0.275966 z m 3.20087,6.916677 0.0879,0.145293 0.16064,0.210269 0.0993,0.21406 -0.69199,0.359443 0.13762,-0.420538 z"
       sodipodi:nodetypes="ccsscccccccccccccscsccsssccscsscssscscsscsssscsscscccsscccccccssccsscsccssssccccccssccccscsssscccccccsssscccccccccccccccc" /><path
       id="path62-9-5-8"
       style="fill-opacity:1;stroke:none;stroke-width:0.499999;stroke-linecap:round;stroke-linejoin:round;stroke-dasharray:none;stroke-opacity:1;paint-order:normal"
       d="m 252.98594,79.749889 1e-4,9.1e-5 c 0.26668,-0.0076 0.51514,0.01914 0.72926,0.04973 0.42823,0.06118 0.68057,0.458807 0.77998,0.634687 0.0994,0.17588 0.37478,0.55825 0.37478,0.55825 0,0 -0.0189,0.10116 -0.0347,0.21054 l 3.5e-4,-3.5e-4 0.26378,0.04205 -7e-4,0.01345 0.0197,-0.0077 c 0.009,0.03182 0.0179,0.02361 0.0269,0.105134 -0.006,0.130605 7e-4,0.273829 -0.0326,0.372799 -0.0266,0.09511 -0.0911,0.135855 -0.12228,0.175887 l -0.0188,-6.99e-4 0.005,0.09052 -0.0612,0.649938 0.0612,0.09945 c 0,0 -0.008,0.252294 0.0153,0.359351 0.0229,0.107057 -0.0229,0.34416 -0.0153,0.420629 0.008,0.07647 -0.18358,0.298238 -0.22182,0.32118 -0.0382,0.02294 -0.21405,0.03817 -0.21405,0.03817 l 0.0458,0.09178 c 0,0 0.13001,0.06117 0.23707,0.114701 0.10706,0.05353 0.84116,1.062915 1.07057,1.33056 0.22941,0.267643 0.92531,2.439378 1.02472,2.492907 0.0994,0.05353 1.34581,0.114789 1.34581,0.114789 l -0.0152,-0.05361 c 0,0 0.56588,0.01535 0.61176,0.01535 0.0459,0 -0.13004,-0.841166 -0.13004,-0.841166 0,0 -0.22172,-0.03059 -0.59642,-0.145293 -0.3747,-0.114704 -0.55825,-0.420562 -0.55825,-0.573502 0,-0.152939 0.25999,-0.298257 0.25999,-0.298257 0,0 -0.0153,-0.917676 0.0689,-1.085909 0.0841,-0.168233 0.54295,-0.305823 0.81824,-0.359352 0.27529,-0.05353 0.76468,-0.191218 0.86409,-0.275335 0.0994,-0.08412 0.39762,-0.129952 0.39762,-0.129952 0,0 -0.22939,-0.214112 -0.25233,-0.259994 -0.0229,-0.04588 0.17589,-0.237071 0.17589,-0.237071 0,0 0.38998,-0.01531 0.48939,-0.0077 0.0994,0.0076 0.22179,0.09175 0.26767,0.2294 0.0459,0.137646 -0.26,0.252413 -0.26,0.252413 0,0 0.2294,0.06877 0.34411,0.09936 0.1147,0.03059 0.42822,0.2294 0.51998,0.2294 0.0918,0 0.55819,0.114753 0.71113,0.160635 0.15294,0.04588 0.4665,0.244685 0.50473,0.313508 0.0382,0.06882 0.0689,1.070568 0.0689,1.070568 0,0 0.24462,0.09944 0.20639,0.32885 -0.0382,0.229409 -0.19118,0.351685 -0.58118,0.527567 -0.38999,0.17588 -0.84874,0.237072 -0.84874,0.237072 0,0 -0.41297,0.305941 -0.73414,0.542999 -0.32117,0.237056 -0.58117,0.55058 -0.58117,0.55058 l -0.55825,0.76464 -0.40529,-0.07644 c 0,0 -0.25233,0.02291 -0.4588,0.07644 -0.20647,0.05353 -0.89467,0.130041 -1.52937,0.130041 -0.6347,0 -1.09349,-0.244741 -1.09349,-0.244741 l -0.008,0.757057 c 0,0 0.0532,0.169487 0.009,0.342748 l 0.067,0.0703 -0.16818,1.896471 -1.16236,4.46268 c 0,0 -0.46853,2.29747 -0.49591,2.8656 0.0461,-0.004 0.0909,0.01 0.1341,0.062 0.10715,0.12975 0.90272,0.41779 1.14673,0.50533 0.24401,0.0875 0.51151,0.3581 0.51151,0.3581 l 0.0126,0.19998 c 0,0 -0.0984,0.21564 -0.2053,0.28442 -0.10688,0.0688 -0.46961,0.16977 -0.62458,0.17858 -0.11816,0.007 -0.3172,-0.028 -0.52297,-0.0764 0.14809,0.12274 0.28708,0.22808 0.38047,0.28398 0.28398,0.16999 0.56015,0.50686 0.56015,0.50686 l 0.0814,0.24397 c 0,0 -0.18806,0.24635 -0.34329,0.30403 -0.15523,0.0577 -0.64285,0.0853 -0.84099,0.0536 -0.36485,-0.0585 -1.25354,-0.55445 -1.46276,-0.70277 -0.20923,-0.14831 -0.58718,-0.26368 -0.76266,-0.32136 -0.17548,-0.0577 -0.35863,-0.17613 -0.35863,-0.17613 l 0.004,-0.18348 0.0403,-0.009 c 0,0 -0.05,-0.19163 0.058,-0.65306 l 0.21929,-0.0386 c -0.22286,-0.009 -0.42839,-0.037 -0.46837,-0.11458 0,0 0.18256,-0.0147 0.0764,-1.11641 -0.1052,-1.09215 0.12354,-2.20365 0.13094,-2.68329 0.007,-0.45105 0.004,-1.33115 0.11778,-3.05608 -0.15793,-0.79025 -0.27721,-1.6313 -0.0714,-2.479918 -0.0133,-0.0109 -0.02,-0.01715 -0.02,-0.01715 l 0.0422,-0.378548 c 0,0 -0.45123,0.107073 -0.6577,0.09178 -0.20647,-0.0153 -0.87167,-0.175887 -0.87167,-0.175887 0,0 -0.79529,-0.443563 -0.84117,-0.68062 -0.0459,-0.237056 -0.17595,-0.611714 -0.1683,-0.711124 0.008,-0.09941 0.5965,-2.393546 0.68062,-2.944128 0.0841,-0.550582 0.31351,-0.772273 0.4588,-0.963448 0.14529,-0.191173 0.79532,-0.443551 0.79532,-0.443551 l 0.0688,-0.06119 0.33643,-0.244743 0.0536,-0.04584 0.21405,-0.259994 0.11471,-0.259994 0.0842,-0.03826 c 0,0 0.0229,-0.191145 0.0229,-0.367023 0,-0.175882 -0.2141,-0.428286 -0.57351,-0.917692 -0.3594,-0.489407 -0.31354,-0.940564 -0.26766,-1.445263 0.0459,-0.504701 0.0763,-0.74933 0.64985,-0.963447 0.28676,-0.107057 0.57168,-0.149199 0.83837,-0.156845 z m 1.83115,1.606077 c -0.003,0.04078 -0.004,0.07499 -7e-4,0.09548 0.0123,0.07409 0.1045,0.297697 0.13952,0.381102 l 0.0211,0.02418 c 0.0236,-0.02651 0.0682,-0.05908 0.0918,-0.139518 0.0223,-0.05374 0.0191,-0.1685 0.019,-0.275966 z m -3.20087,6.916677 -0.0879,0.145293 -0.16064,0.210269 -0.0993,0.21406 0.69199,0.359443 -0.13762,-0.420538 z"
       sodipodi:nodetypes="ccsscccccccccccccscsccsssccscsscssscscsscsssscsscscccsscccccccssccsscsccssssccccccssccccscsssscccccccsssscccccccccccccccc" /><path
       id="path62-9-7"
       style="fill-opacity:1;stroke:none;stroke-width:0.499999;stroke-linecap:round;stroke-linejoin:round;stroke-dasharray:none;stroke-opacity:1;paint-order:normal"
       d="m 282.42617,-1.8645148 -1e-4,9.1e-5 c -0.26668,-0.0076 -0.51514,0.01914 -0.72926,0.04973 -0.42823,0.06118 -0.68057,0.458807 -0.77998,0.634687 -0.0994,0.17588 -0.37478,0.55824998 -0.37478,0.55824998 0,0 0.0189,0.10116 0.0347,0.21054 l -3.5e-4,-3.5e-4 -0.26378,0.04205 7e-4,0.01345 -0.0197,-0.0077 c -0.009,0.03182 -0.0179,0.02361 -0.0269,0.105134 0.006,0.130605 -7e-4,0.273829 0.0326,0.372799 0.0266,0.09511 0.0911,0.135855 0.12228,0.175887 l 0.0188,-6.99e-4 -0.005,0.09052 0.0612,0.64993802 -0.0612,0.09945 c 0,0 0.008,0.252294 -0.0153,0.359351 -0.0229,0.107057 0.0229,0.34416 0.0153,0.420629 -0.008,0.07647 0.18358,0.298238 0.22182,0.32118 0.0382,0.02294 0.21405,0.03817 0.21405,0.03817 l -0.0458,0.09178 c 0,0 -0.13001,0.06117 -0.23707,0.114701 -0.10706,0.05353 -0.84116,1.062915 -1.07057,1.33056 -0.22941,0.267643 -0.92531,2.439378 -1.02472,2.492907 -0.0994,0.05353 -1.34581,0.114789 -1.34581,0.114789 l 0.0152,-0.05361 c 0,0 -0.56588,0.01535 -0.61176,0.01535 -0.0459,0 0.13004,-0.841166 0.13004,-0.841166 0,0 0.22172,-0.03059 0.59642,-0.145293 0.3747,-0.114704 0.55825,-0.420562 0.55825,-0.573502 0,-0.152939 -0.25999,-0.298257 -0.25999,-0.298257 0,0 0.0153,-0.917676 -0.0689,-1.085909 -0.0841,-0.168233 -0.54295,-0.305823 -0.81824,-0.359352 -0.27529,-0.05353 -0.76468,-0.191218 -0.86409,-0.275335 -0.0994,-0.08412 -0.39762,-0.129952 -0.39762,-0.129952 0,0 0.22939,-0.214112 0.25233,-0.259994 0.0229,-0.04588 -0.17589,-0.237071 -0.17589,-0.237071 0,0 -0.38998,-0.01531 -0.48939,-0.0077 -0.0994,0.0076 -0.22179,0.09175 -0.26767,0.2294 -0.0459,0.137646 0.26,0.252413 0.26,0.252413 0,0 -0.2294,0.06877 -0.34411,0.09936 -0.1147,0.03059 -0.42822,0.2294 -0.51998,0.2294 -0.0918,0 -0.55819,0.114753 -0.71113,0.160635 -0.15294,0.04588 -0.4665,0.244685 -0.50473,0.313508 -0.0382,0.06882 -0.0689,1.070568 -0.0689,1.070568 0,0 -0.24462,0.09944 -0.20639,0.32885 0.0382,0.229409 0.19118,0.351685 0.58118,0.527567 0.38999,0.17588 0.84874,0.237072 0.84874,0.237072 0,0 0.41297,0.305941 0.73414,0.542999 0.32117,0.237056 0.58117,0.55058 0.58117,0.55058 l 0.55825,0.76464 0.40529,-0.07644 c 0,0 0.25233,0.02291 0.4588,0.07644 0.20647,0.05353 0.89467,0.130041 1.52937,0.130041 0.6347,0 1.09349,-0.244741 1.09349,-0.244741 l 0.008,0.757057 c 0,0 -0.0532,0.169487 -0.009,0.342748 l -0.067,0.0703 0.16818,1.8964738 1.16236,4.462679 c 0,0 0.46853,2.297473 0.49591,2.8656 -0.0461,-0.0036 -0.0909,0.0097 -0.1341,0.06205 -0.10715,0.129752 -0.90272,0.417785 -1.14673,0.505331 -0.24401,0.08754 -0.51151,0.358101 -0.51151,0.358101 l -0.0126,0.199979 c 0,0 0.0984,0.215634 0.2053,0.284419 0.10688,0.06879 0.46961,0.169773 0.62458,0.178581 0.11816,0.0067 0.3172,-0.02799 0.52297,-0.07642 -0.14809,0.122741 -0.28708,0.228076 -0.38047,0.28398 -0.28398,0.16999 -0.56015,0.506859 -0.56015,0.506859 l -0.0814,0.243973 c 0,0 0.18806,0.24635 0.34329,0.304026 0.15523,0.05769 0.64285,0.08534 0.84099,0.05357 0.36485,-0.0585 1.25354,-0.554455 1.46276,-0.702769 0.20923,-0.148315 0.58718,-0.263681 0.76266,-0.32136 0.17548,-0.05768 0.35863,-0.176132 0.35863,-0.176132 l -0.004,-0.183484 -0.0403,-0.0091 c 0,0 0.05,-0.19163 -0.058,-0.653051 l -0.21929,-0.0386 c 0.22286,-0.0089 0.42839,-0.03704 0.46837,-0.114589 0,0 -0.18256,-0.01469 -0.0764,-1.116402 0.1052,-1.092151 -0.12354,-2.203649 -0.13094,-2.683294 -0.007,-0.451049 -0.004,-1.331145 -0.11778,-3.056076 0.15793,-0.79025 0.27721,-1.6313028 0.0714,-2.4799218 0.0133,-0.0109 0.02,-0.01715 0.02,-0.01715 l -0.0422,-0.378548 c 0,0 0.45123,0.107073 0.6577,0.09178 0.20647,-0.0153 0.87167,-0.175887 0.87167,-0.175887 0,0 0.79529,-0.443563 0.84117,-0.68062 0.0459,-0.237056 0.17595,-0.611714 0.1683,-0.711124 -0.008,-0.09941 -0.5965,-2.393546 -0.68062,-2.944128 -0.0841,-0.550582 -0.31351,-0.772273 -0.4588,-0.963448 -0.14529,-0.191173 -0.79532,-0.443551 -0.79532,-0.443551 l -0.0688,-0.06119 -0.33643,-0.244743 -0.0536,-0.04584 -0.21405,-0.259994 -0.11471,-0.259994 -0.0842,-0.03826 c 0,0 -0.0229,-0.191145 -0.0229,-0.367023 0,-0.175882 0.2141,-0.428286 0.57351,-0.91769202 0.3594,-0.489407 0.31354,-0.940564 0.26766,-1.445263 -0.0459,-0.50470098 -0.0763,-0.74932998 -0.64985,-0.96344698 -0.28676,-0.107057 -0.57168,-0.149199 -0.83837,-0.156845 z m -1.83115,1.60607698 c 0.003,0.04078 0.004,0.07499 7e-4,0.09548 -0.0123,0.07409 -0.1045,0.297697 -0.13952,0.381102 l -0.0211,0.02418 c -0.0236,-0.02651 -0.0682,-0.05908 -0.0918,-0.139518 -0.0223,-0.05374 -0.0191,-0.1685 -0.019,-0.275966 z m 3.20087,6.91667702 0.0879,0.145293 0.16064,0.210269 0.0993,0.21406 -0.69199,0.359443 0.13762,-0.420538 z"
       sodipodi:nodetypes="ccsscccccccccccccscsccsssccscsscssscscsscsssscsscscccsscccccccssccsscsccssssccccccssccccscsssscccccccsssscccccccccccccccc" /><path
       id="path62-9-7-21"
       style="fill-opacity:1;stroke:none;stroke-width:0.499999;stroke-linecap:round;stroke-linejoin:round;stroke-dasharray:none;stroke-opacity:1;paint-order:normal"
       d="m 282.42604,98.135215 -10e-5,9.1e-5 c -0.26668,-0.0076 -0.51514,0.01914 -0.72925,0.04973 -0.42823,0.06118 -0.68056,0.458807 -0.77997,0.634687 -0.0994,0.17588 -0.37478,0.55825 -0.37478,0.55825 0,0 0.0189,0.10116 0.0347,0.21054 l -3.5e-4,-3.5e-4 -0.26377,0.04205 7e-4,0.01345 -0.0197,-0.0077 c -0.009,0.03182 -0.0179,0.02361 -0.0269,0.105134 0.006,0.130605 -7e-4,0.273833 0.0326,0.372803 0.0266,0.0951 0.0911,0.13585 0.12227,0.17588 l 0.0188,-7e-4 -0.005,0.0905 0.0612,0.64994 -0.0612,0.0995 c 0,0 0.008,0.2523 -0.0153,0.35935 -0.0229,0.10706 0.0229,0.34416 0.0153,0.42063 -0.008,0.0765 0.18358,0.29824 0.22182,0.32118 0.0382,0.0229 0.21405,0.0382 0.21405,0.0382 l -0.0458,0.0918 c 0,0 -0.13001,0.0612 -0.23707,0.1147 -0.10706,0.0535 -0.84115,1.06292 -1.07055,1.33056 -0.22941,0.26765 -0.9253,2.43938 -1.02471,2.49291 -0.0994,0.0535 -1.34579,0.11479 -1.34579,0.11479 l 0.0152,-0.0536 c 0,0 -0.56587,0.0153 -0.61175,0.0153 -0.0459,0 0.13004,-0.84117 0.13004,-0.84117 0,0 0.22171,-0.0306 0.59641,-0.14529 0.37469,-0.1147 0.55824,-0.42056 0.55824,-0.5735 0,-0.15294 -0.25999,-0.29826 -0.25999,-0.29826 0,0 0.0153,-0.91767 -0.0689,-1.08591 -0.0841,-0.16823 -0.54294,-0.30582 -0.81822,-0.35935 -0.27529,-0.0535 -0.76467,-0.19122 -0.86408,-0.27533 -0.0994,-0.0841 -0.39762,-0.12996 -0.39762,-0.12996 0,0 0.22939,-0.21411 0.25233,-0.25999 0.0229,-0.0459 -0.17589,-0.23707 -0.17589,-0.23707 0,0 -0.38997,-0.0153 -0.48938,-0.008 -0.0994,0.008 -0.22179,0.0918 -0.26767,0.2294 -0.0459,0.13764 0.26,0.25241 0.26,0.25241 0,0 -0.2294,0.0688 -0.34411,0.0994 -0.1147,0.0306 -0.42821,0.2294 -0.51997,0.2294 -0.0918,0 -0.55818,0.11475 -0.71112,0.16064 -0.15294,0.0459 -0.46649,0.24468 -0.50472,0.3135 -0.0382,0.0688 -0.0689,1.07057 -0.0689,1.07057 0,0 -0.24462,0.0994 -0.20639,0.32885 0.0382,0.22941 0.19118,0.35169 0.58117,0.52757 0.38999,0.17588 0.84873,0.23707 0.84873,0.23707 0,0 0.41297,0.30594 0.73413,0.543 0.32117,0.23706 0.58116,0.55058 0.58116,0.55058 l 0.55825,0.76464 0.40528,-0.0764 c 0,0 0.25233,0.0229 0.45879,0.0764 0.20647,0.0535 0.89466,0.13004 1.52935,0.13004 0.63469,0 1.09348,-0.24474 1.09348,-0.24474 l 0.008,0.75706 c 0,0 -0.0532,0.16948 -0.009,0.34275 l -0.067,0.0703 0.16818,1.89647 1.16234,4.46268 c 0,0 0.46852,2.29747 0.4959,2.8656 -0.0461,-0.004 -0.0909,0.01 -0.13409,0.062 -0.10715,0.12975 -0.90271,0.41778 -1.14672,0.50533 -0.244,0.0875 -0.5115,0.3581 -0.5115,0.3581 l -0.0126,0.19998 c 0,0 0.0984,0.21563 0.2053,0.28442 0.10687,0.0688 0.4696,0.16977 0.62457,0.17858 0.11816,0.007 0.31719,-0.028 0.52296,-0.0764 -0.14809,0.12274 -0.28708,0.22808 -0.38046,0.28398 -0.28398,0.16999 -0.56015,0.50686 -0.56015,0.50686 l -0.0814,0.24397 c 0,0 0.18806,0.24635 0.34329,0.30403 0.15523,0.0577 0.64284,0.0853 0.84098,0.0536 0.36484,-0.0585 1.25352,-0.55446 1.46274,-0.70277 0.20923,-0.14832 0.58717,-0.26368 0.76265,-0.32136 0.17548,-0.0577 0.35862,-0.17613 0.35862,-0.17613 l -0.004,-0.18349 -0.0403,-0.009 c 0,0 0.05,-0.19163 -0.058,-0.65305 l -0.21928,-0.0386 c 0.22285,-0.009 0.42838,-0.037 0.46836,-0.11459 0,0 -0.18256,-0.0147 -0.0764,-1.1164 0.1052,-1.09215 -0.12354,-2.20365 -0.13094,-2.68329 -0.007,-0.45105 -0.004,-1.33115 -0.11777,-3.05608 0.15792,-0.79025 0.2772,-1.6313 0.0714,-2.47992 0.0133,-0.0109 0.02,-0.0172 0.02,-0.0172 l -0.0422,-0.37855 c 0,0 0.45122,0.10707 0.65769,0.0918 0.20646,-0.0153 0.87165,-0.17589 0.87165,-0.17589 0,0 0.79528,-0.44356 0.84116,-0.68062 0.0459,-0.23705 0.17595,-0.61171 0.1683,-0.71112 -0.008,-0.0994 -0.59649,-2.39355 -0.68061,-2.94413 -0.0841,-0.55058 -0.31351,-0.77227 -0.45879,-0.96345 -0.14529,-0.19117 -0.79531,-0.44355 -0.79531,-0.44355 l -0.0688,-0.0612 -0.33643,-0.24474 -0.0536,-0.0458 -0.21404,-0.25999 -0.11471,-0.26 -0.0842,-0.0383 c 0,0 -0.0229,-0.19114 -0.0229,-0.36702 0,-0.17588 0.2141,-0.42829 0.5735,-0.91769 0.3594,-0.48941 0.31354,-0.940568 0.26766,-1.445267 -0.0459,-0.504701 -0.0763,-0.74933 -0.64984,-0.963447 -0.28676,-0.107057 -0.57168,-0.149199 -0.83836,-0.156845 z m -1.83113,1.606077 c 0.003,0.04078 0.004,0.07499 7e-4,0.09548 -0.0123,0.07409 -0.1045,0.297698 -0.13952,0.381098 l -0.0211,0.0242 c -0.0236,-0.0265 -0.0682,-0.0591 -0.0918,-0.13951 -0.0223,-0.0537 -0.0191,-0.168504 -0.019,-0.27597 z m 3.20083,6.916678 0.0879,0.14529 0.16064,0.21027 0.0993,0.21406 -0.69198,0.35944 0.13762,-0.42053 z"
       sodipodi:nodetypes="ccsscccccccccccccscsccsssccscsscssscscsscsssscsscscccsscccccccssccsscsccssssccccccssccccscsssscccccccsssscccccccccccccccc" /><path
       id="path62-9-5-6"
       style="fill-opacity:1;stroke:none;stroke-width:0.499999;stroke-linecap:round;stroke-linejoin:round;stroke-dasharray:none;stroke-opacity:1;paint-order:normal"
       d="m 299.29991,19.898726 10e-5,9.1e-5 c 0.26668,-0.0076 0.51514,0.01914 0.72926,0.04973 0.42823,0.06118 0.68057,0.458807 0.77998,0.634687 0.0994,0.17588 0.37478,0.55825 0.37478,0.55825 0,0 -0.0189,0.10116 -0.0347,0.21054 l 3.5e-4,-3.5e-4 0.26378,0.04205 -7e-4,0.01345 0.0197,-0.0077 c 0.009,0.03182 0.0179,0.02361 0.0269,0.105134 -0.006,0.130605 7e-4,0.273829 -0.0326,0.372799 -0.0266,0.09511 -0.0911,0.135855 -0.12228,0.175887 l -0.0188,-6.99e-4 0.005,0.09052 -0.0612,0.649938 0.0612,0.09945 c 0,0 -0.008,0.252294 0.0153,0.359351 0.0229,0.107057 -0.0229,0.34416 -0.0153,0.420629 0.008,0.07647 -0.18358,0.298238 -0.22182,0.32118 -0.0382,0.02294 -0.21405,0.03817 -0.21405,0.03817 l 0.0458,0.09178 c 0,0 0.13001,0.06117 0.23707,0.114701 0.10706,0.05353 0.84116,1.062915 1.07057,1.33056 0.22941,0.267643 0.92531,2.439378 1.02472,2.492907 0.0994,0.05353 1.34581,0.114789 1.34581,0.114789 l -0.0152,-0.05361 c 0,0 0.56588,0.01535 0.61176,0.01535 0.0459,0 -0.13004,-0.841166 -0.13004,-0.841166 0,0 -0.22172,-0.03059 -0.59642,-0.145293 -0.3747,-0.114704 -0.55825,-0.420562 -0.55825,-0.573502 0,-0.152939 0.25999,-0.298257 0.25999,-0.298257 0,0 -0.0153,-0.917676 0.0689,-1.085909 0.0841,-0.168233 0.54295,-0.305823 0.81824,-0.359352 0.27529,-0.05353 0.76468,-0.191218 0.86409,-0.275335 0.0994,-0.08412 0.39762,-0.129952 0.39762,-0.129952 0,0 -0.22939,-0.214112 -0.25233,-0.259994 -0.0229,-0.04588 0.17589,-0.237071 0.17589,-0.237071 0,0 0.38998,-0.01531 0.48939,-0.0077 0.0994,0.0076 0.22179,0.09175 0.26767,0.2294 0.0459,0.137646 -0.26,0.252413 -0.26,0.252413 0,0 0.2294,0.06877 0.34411,0.09936 0.1147,0.03059 0.42822,0.2294 0.51998,0.2294 0.0918,0 0.55819,0.114753 0.71113,0.160635 0.15294,0.04588 0.4665,0.244685 0.50473,0.313508 0.0382,0.06882 0.0689,1.070568 0.0689,1.070568 0,0 0.24462,0.09944 0.20639,0.32885 -0.0382,0.229409 -0.19118,0.351685 -0.58118,0.527567 -0.38999,0.17588 -0.84874,0.237072 -0.84874,0.237072 0,0 -0.41297,0.305941 -0.73414,0.542999 -0.32117,0.237056 -0.58117,0.55058 -0.58117,0.55058 l -0.55825,0.76464 -0.40529,-0.07644 c 0,0 -0.25233,0.02291 -0.4588,0.07644 -0.20647,0.05353 -0.89467,0.130041 -1.52937,0.130041 -0.6347,0 -1.09349,-0.244741 -1.09349,-0.244741 l -0.008,0.757057 c 0,0 0.0532,0.169487 0.009,0.342748 l 0.067,0.0703 -0.16818,1.896474 -1.16236,4.462679 c 0,0 -0.46853,2.297473 -0.49591,2.8656 0.0461,-0.0036 0.0909,0.0097 0.1341,0.06205 0.10715,0.129752 0.90272,0.417785 1.14673,0.505331 0.24401,0.08754 0.51151,0.358101 0.51151,0.358101 l 0.0126,0.199979 c 0,0 -0.0984,0.215634 -0.2053,0.284419 -0.10688,0.06879 -0.46961,0.169773 -0.62458,0.178581 -0.11816,0.0067 -0.3172,-0.02799 -0.52297,-0.07642 0.14809,0.122741 0.28708,0.228076 0.38047,0.28398 0.28398,0.16999 0.56015,0.506859 0.56015,0.506859 l 0.0814,0.243973 c 0,0 -0.18806,0.24635 -0.34329,0.304026 -0.15523,0.05769 -0.64285,0.08534 -0.84099,0.05357 -0.36485,-0.0585 -1.25354,-0.554455 -1.46276,-0.702769 -0.20923,-0.148315 -0.58718,-0.263681 -0.76266,-0.32136 -0.17548,-0.05768 -0.35863,-0.176132 -0.35863,-0.176132 l 0.004,-0.183484 0.0403,-0.0091 c 0,0 -0.05,-0.19163 0.058,-0.653051 l 0.21929,-0.0386 c -0.22286,-0.0089 -0.42839,-0.03704 -0.46837,-0.114589 0,0 0.18256,-0.01469 0.0764,-1.116402 -0.1052,-1.092151 0.12354,-2.203649 0.13094,-2.683294 0.007,-0.451049 0.004,-1.331145 0.11778,-3.056076 -0.15793,-0.79025 -0.27721,-1.631303 -0.0714,-2.479922 -0.0133,-0.0109 -0.02,-0.01715 -0.02,-0.01715 l 0.0422,-0.378548 c 0,0 -0.45123,0.107073 -0.6577,0.09178 -0.20647,-0.0153 -0.87167,-0.175887 -0.87167,-0.175887 0,0 -0.79529,-0.443563 -0.84117,-0.68062 -0.0459,-0.237056 -0.17595,-0.611714 -0.1683,-0.711124 0.008,-0.09941 0.5965,-2.393546 0.68062,-2.944128 0.0841,-0.550582 0.31351,-0.772273 0.4588,-0.963448 0.14529,-0.191173 0.79532,-0.443551 0.79532,-0.443551 l 0.0688,-0.06119 0.33643,-0.244743 0.0536,-0.04584 0.21405,-0.259994 0.11471,-0.259994 0.0842,-0.03826 c 0,0 0.0229,-0.191145 0.0229,-0.367023 0,-0.175882 -0.2141,-0.428286 -0.57351,-0.917692 -0.3594,-0.489407 -0.31354,-0.940564 -0.26766,-1.445263 0.0459,-0.504701 0.0763,-0.74933 0.64985,-0.963447 0.28676,-0.107057 0.57168,-0.149199 0.83837,-0.156845 z m 1.83115,1.606077 c -0.003,0.04078 -0.004,0.07499 -7e-4,0.09548 0.0123,0.07409 0.1045,0.297697 0.13952,0.381102 l 0.0211,0.02418 c 0.0236,-0.02651 0.0682,-0.05908 0.0918,-0.139518 0.0223,-0.05374 0.0191,-0.1685 0.019,-0.275966 z m -3.20087,6.916677 -0.0879,0.145293 -0.16064,0.210269 -0.0993,0.21406 0.69199,0.359443 -0.13762,-0.420538 z"
       sodipodi:nodetypes="ccsscccccccccccccscsccsssccscsscssscscsscsssscsscscccsscccccccssccsscsccssssccccccssccccscsssscccccccsssscccccccccccccccc" /><path
       id="path62-9-8-0"
       style="fill-opacity:1;stroke:none;stroke-width:0.499999;stroke-linecap:round;stroke-linejoin:round;stroke-dasharray:none;stroke-opacity:1;paint-order:normal"
       d="m 282.9689,46.178583 -1e-4,9.1e-5 c -0.26668,-0.0076 -0.51514,0.01914 -0.72926,0.04973 -0.42823,0.06118 -0.68057,0.458807 -0.77998,0.634687 -0.0994,0.17588 -0.37478,0.55825 -0.37478,0.55825 0,0 0.0189,0.10116 0.0347,0.21054 l -3.5e-4,-3.5e-4 -0.26378,0.04205 7e-4,0.01345 -0.0197,-0.0077 c -0.009,0.03182 -0.0179,0.02361 -0.0269,0.105134 0.006,0.130605 -7e-4,0.273829 0.0326,0.372799 0.0266,0.09511 0.0911,0.135855 0.12228,0.175887 l 0.0188,-6.99e-4 -0.005,0.09052 0.0612,0.649938 -0.0612,0.09945 c 0,0 0.008,0.252294 -0.0153,0.359351 -0.0229,0.107057 0.0229,0.34416 0.0153,0.420629 -0.008,0.07647 0.18358,0.298238 0.22182,0.32118 0.0382,0.02294 0.21405,0.03817 0.21405,0.03817 l -0.0458,0.09178 c 0,0 -0.13001,0.06117 -0.23707,0.114701 -0.10706,0.05353 -0.84116,1.062915 -1.07057,1.33056 -0.22941,0.267643 -0.92531,2.439378 -1.02472,2.492907 -0.0994,0.05353 -1.34581,0.114789 -1.34581,0.114789 l 0.0152,-0.05361 c 0,0 -0.56588,0.01535 -0.61176,0.01535 -0.0459,0 0.13004,-0.841166 0.13004,-0.841166 0,0 0.22172,-0.03059 0.59642,-0.145293 0.3747,-0.114704 0.55825,-0.420562 0.55825,-0.573502 0,-0.152939 -0.25999,-0.298257 -0.25999,-0.298257 0,0 0.0153,-0.917676 -0.0689,-1.085909 -0.0841,-0.168233 -0.54295,-0.305823 -0.81824,-0.359352 -0.27529,-0.05353 -0.76468,-0.191218 -0.86409,-0.275335 -0.0994,-0.08412 -0.39762,-0.129952 -0.39762,-0.129952 0,0 0.22939,-0.214112 0.25233,-0.259994 0.0229,-0.04588 -0.17589,-0.237071 -0.17589,-0.237071 0,0 -0.38998,-0.01531 -0.48939,-0.0077 -0.0994,0.0076 -0.22179,0.09175 -0.26767,0.2294 -0.0459,0.137646 0.26,0.252413 0.26,0.252413 0,0 -0.2294,0.06877 -0.34411,0.09936 -0.1147,0.03059 -0.42822,0.2294 -0.51998,0.2294 -0.0918,0 -0.55819,0.114753 -0.71113,0.160635 -0.15294,0.04588 -0.4665,0.244685 -0.50473,0.313508 -0.0382,0.06882 -0.0689,1.070568 -0.0689,1.070568 0,0 -0.24462,0.09944 -0.20639,0.32885 0.0382,0.229409 0.19118,0.351685 0.58118,0.527567 0.38999,0.17588 0.84874,0.237072 0.84874,0.237072 0,0 0.41297,0.305941 0.73414,0.542999 0.32117,0.237056 0.58117,0.55058 0.58117,0.55058 l 0.55825,0.76464 0.40529,-0.07644 c 0,0 0.25233,0.02291 0.4588,0.07644 0.20647,0.05353 0.89467,0.130041 1.52937,0.130041 0.6347,0 1.09349,-0.244741 1.09349,-0.244741 l 0.008,0.757057 c 0,0 -0.0532,0.169487 -0.009,0.342748 l -0.067,0.0703 0.16818,1.896474 1.16236,4.462679 c 0,0 0.46853,2.297473 0.49591,2.8656 -0.0461,-0.0036 -0.0909,0.0097 -0.1341,0.06205 -0.10715,0.129752 -0.90272,0.417785 -1.14673,0.505331 -0.24401,0.08754 -0.51151,0.358101 -0.51151,0.358101 l -0.0126,0.199979 c 0,0 0.0984,0.215634 0.2053,0.284419 0.10688,0.06879 0.46961,0.169773 0.62458,0.178581 0.11816,0.0067 0.3172,-0.02799 0.52297,-0.07642 -0.14809,0.122741 -0.28708,0.228076 -0.38047,0.28398 -0.28398,0.16999 -0.56015,0.506859 -0.56015,0.506859 l -0.0814,0.243973 c 0,0 0.18806,0.24635 0.34329,0.304026 0.15523,0.05769 0.64285,0.08534 0.84099,0.05357 0.36485,-0.0585 1.25354,-0.554455 1.46276,-0.702769 0.20923,-0.148315 0.58718,-0.263681 0.76266,-0.32136 0.17548,-0.05768 0.35863,-0.176132 0.35863,-0.176132 l -0.004,-0.183484 -0.0403,-0.0091 c 0,0 0.05,-0.19163 -0.058,-0.653051 l -0.21929,-0.0386 c 0.22286,-0.0089 0.42839,-0.03704 0.46837,-0.114589 0,0 -0.18256,-0.01469 -0.0764,-1.116402 0.1052,-1.092151 -0.12354,-2.203649 -0.13094,-2.683294 -0.007,-0.451049 -0.004,-1.331145 -0.11778,-3.056076 0.15793,-0.79025 0.27721,-1.631303 0.0714,-2.479922 0.0133,-0.0109 0.02,-0.01715 0.02,-0.01715 l -0.0422,-0.378548 c 0,0 0.45123,0.107073 0.6577,0.09178 0.20647,-0.0153 0.87167,-0.175887 0.87167,-0.175887 0,0 0.79529,-0.443563 0.84117,-0.68062 0.0459,-0.237056 0.17595,-0.611714 0.1683,-0.711124 -0.008,-0.09941 -0.5965,-2.393546 -0.68062,-2.944128 -0.0841,-0.550582 -0.31351,-0.772273 -0.4588,-0.963448 -0.14529,-0.191173 -0.79532,-0.443551 -0.79532,-0.443551 l -0.0688,-0.06119 -0.33643,-0.244743 -0.0536,-0.04584 -0.21405,-0.259994 -0.11471,-0.259994 -0.0842,-0.03826 c 0,0 -0.0229,-0.191145 -0.0229,-0.367023 0,-0.175882 0.2141,-0.428286 0.57351,-0.917692 0.3594,-0.489407 0.31354,-0.940564 0.26766,-1.445263 -0.0459,-0.504701 -0.0763,-0.74933 -0.64985,-0.963447 -0.28676,-0.107057 -0.57168,-0.149199 -0.83837,-0.156845 z m -1.83115,1.606077 c 0.003,0.04078 0.004,0.07499 7e-4,0.09548 -0.0123,0.07409 -0.1045,0.297697 -0.13952,0.381102 l -0.0211,0.02418 c -0.0236,-0.02651 -0.0682,-0.05908 -0.0918,-0.139518 -0.0223,-0.05374 -0.0191,-0.1685 -0.019,-0.275966 z m 3.20087,6.916677 0.0879,0.145293 0.16064,0.210269 0.0993,0.21406 -0.69199,0.359443 0.13762,-0.420538 z"
       sodipodi:nodetypes="ccsscccccccccccccscsccsssccscsscssscscsscsssscsscscccsscccccccssccsscsccssssccccccssccccscsssscccccccsssscccccccccccccccc" /><path
       id="path62-9-5-8-9"
       style="fill-opacity:1;stroke:none;stroke-width:0.499999;stroke-linecap:round;stroke-linejoin:round;stroke-dasharray:none;stroke-opacity:1;paint-order:normal"
       d="m 302.98391,68.470991 1e-4,9.1e-5 c 0.26668,-0.0076 0.51514,0.01914 0.72926,0.04973 0.42823,0.06118 0.68057,0.458807 0.77998,0.634687 0.0994,0.17588 0.37478,0.55825 0.37478,0.55825 0,0 -0.0189,0.10116 -0.0347,0.21054 l 3.5e-4,-3.5e-4 0.26378,0.04205 -7e-4,0.01345 0.0197,-0.0077 c 0.009,0.03182 0.0179,0.02361 0.0269,0.105134 -0.006,0.130605 7e-4,0.273829 -0.0326,0.372799 -0.0266,0.09511 -0.0911,0.135855 -0.12228,0.175887 l -0.0188,-6.99e-4 0.005,0.09052 -0.0612,0.649938 0.0612,0.09945 c 0,0 -0.008,0.252294 0.0153,0.359351 0.0229,0.107057 -0.0229,0.34416 -0.0153,0.420629 0.008,0.07647 -0.18358,0.298238 -0.22182,0.32118 -0.0382,0.02294 -0.21405,0.03817 -0.21405,0.03817 l 0.0458,0.09178 c 0,0 0.13001,0.06117 0.23707,0.114701 0.10706,0.05353 0.84116,1.062915 1.07057,1.33056 0.22941,0.267643 0.92531,2.439378 1.02472,2.492907 0.0994,0.05353 1.34581,0.114789 1.34581,0.114789 l -0.0152,-0.05361 c 0,0 0.56588,0.01535 0.61176,0.01535 0.0459,0 -0.13004,-0.841166 -0.13004,-0.841166 0,0 -0.22172,-0.03059 -0.59642,-0.145293 -0.3747,-0.114704 -0.55825,-0.420562 -0.55825,-0.573502 0,-0.152939 0.25999,-0.298257 0.25999,-0.298257 0,0 -0.0153,-0.917676 0.0689,-1.085909 0.0841,-0.168233 0.54295,-0.305823 0.81824,-0.359352 0.27529,-0.05353 0.76468,-0.191218 0.86409,-0.275335 0.0994,-0.08412 0.39762,-0.129952 0.39762,-0.129952 0,0 -0.22939,-0.214112 -0.25233,-0.259994 -0.0229,-0.04588 0.17589,-0.237071 0.17589,-0.237071 0,0 0.38998,-0.01531 0.48939,-0.0077 0.0994,0.0076 0.22179,0.09175 0.26767,0.2294 0.0459,0.137646 -0.26,0.252413 -0.26,0.252413 0,0 0.2294,0.06877 0.34411,0.09936 0.1147,0.03059 0.42822,0.2294 0.51998,0.2294 0.0918,0 0.55819,0.114753 0.71113,0.160635 0.15294,0.04588 0.4665,0.244685 0.50473,0.313508 0.0382,0.06882 0.0689,1.070568 0.0689,1.070568 0,0 0.24462,0.09944 0.20639,0.32885 -0.0382,0.229409 -0.19118,0.351685 -0.58118,0.527567 -0.38999,0.17588 -0.84874,0.237072 -0.84874,0.237072 0,0 -0.41297,0.305941 -0.73414,0.542999 -0.32117,0.237056 -0.58117,0.55058 -0.58117,0.55058 l -0.55825,0.76464 -0.40529,-0.07644 c 0,0 -0.25233,0.02291 -0.4588,0.07644 -0.20647,0.05353 -0.89467,0.130041 -1.52937,0.130041 -0.6347,0 -1.09349,-0.244741 -1.09349,-0.244741 l -0.008,0.757057 c 0,0 0.0532,0.169487 0.009,0.342748 l 0.067,0.0703 -0.16818,1.896471 -1.16236,4.46268 c 0,0 -0.46853,2.29747 -0.49591,2.8656 0.0461,-0.004 0.0909,0.01 0.1341,0.062 0.10715,0.12975 0.90272,0.41779 1.14673,0.50533 0.24401,0.0875 0.51151,0.3581 0.51151,0.3581 l 0.0126,0.19998 c 0,0 -0.0984,0.21564 -0.2053,0.28442 -0.10688,0.0688 -0.46961,0.16977 -0.62458,0.17858 -0.11816,0.007 -0.3172,-0.028 -0.52297,-0.0764 0.14809,0.12274 0.28708,0.22808 0.38047,0.28398 0.28398,0.16999 0.56015,0.50686 0.56015,0.50686 l 0.0814,0.24397 c 0,0 -0.18806,0.24635 -0.34329,0.30403 -0.15523,0.0577 -0.64285,0.0853 -0.84099,0.0536 -0.36485,-0.0585 -1.25354,-0.55445 -1.46276,-0.70277 -0.20923,-0.14831 -0.58718,-0.26368 -0.76266,-0.32136 -0.17548,-0.0577 -0.35863,-0.17613 -0.35863,-0.17613 l 0.004,-0.18348 0.0403,-0.009 c 0,0 -0.05,-0.19163 0.058,-0.65306 l 0.21929,-0.0386 c -0.22286,-0.009 -0.42839,-0.037 -0.46837,-0.11458 0,0 0.18256,-0.0147 0.0764,-1.11641 -0.1052,-1.09215 0.12354,-2.20365 0.13094,-2.68329 0.007,-0.45105 0.004,-1.33115 0.11778,-3.05608 -0.15793,-0.79025 -0.27721,-1.6313 -0.0714,-2.479918 -0.0133,-0.0109 -0.02,-0.01715 -0.02,-0.01715 l 0.0422,-0.378548 c 0,0 -0.45123,0.107073 -0.6577,0.09178 -0.20647,-0.0153 -0.87167,-0.175887 -0.87167,-0.175887 0,0 -0.79529,-0.443563 -0.84117,-0.68062 -0.0459,-0.237056 -0.17595,-0.611714 -0.1683,-0.711124 0.008,-0.09941 0.5965,-2.393546 0.68062,-2.944128 0.0841,-0.550582 0.31351,-0.772273 0.4588,-0.963448 0.14529,-0.191173 0.79532,-0.443551 0.79532,-0.443551 l 0.0688,-0.06119 0.33643,-0.244743 0.0536,-0.04584 0.21405,-0.259994 0.11471,-0.259994 0.0842,-0.03826 c 0,0 0.0229,-0.191145 0.0229,-0.367023 0,-0.175882 -0.2141,-0.428286 -0.57351,-0.917692 -0.3594,-0.489407 -0.31354,-0.940564 -0.26766,-1.445263 0.0459,-0.504701 0.0763,-0.74933 0.64985,-0.963447 0.28676,-0.107057 0.57168,-0.149199 0.83837,-0.156845 z m 1.83115,1.606077 c -0.003,0.04078 -0.004,0.07499 -7e-4,0.09548 0.0123,0.07409 0.1045,0.297697 0.13952,0.381102 l 0.0211,0.02418 c 0.0236,-0.02651 0.0682,-0.05908 0.0918,-0.139518 0.0223,-0.05374 0.0191,-0.1685 0.019,-0.275966 z m -3.20087,6.916677 -0.0879,0.145293 -0.16064,0.210269 -0.0993,0.21406 0.69199,0.359443 -0.13762,-0.420538 z"
       sodipodi:nodetypes="ccsscccccccccccccscsccsssccscsscssscscsscsssscsscscccsscccccccssccsscsccssssccccccssccccscsssscccccccsssscccccccccccccccc" /><path
       id="path62-9-5-8-8"
       style="fill-opacity:1;stroke:none;stroke-width:0.499999;stroke-linecap:round;stroke-linejoin:round;stroke-dasharray:none;stroke-opacity:1;paint-order:normal"
       d="m 252.98594,-20.250381 1e-4,9.1e-5 c 0.26668,-0.0076 0.51514,0.01914 0.72926,0.04973 0.42823,0.06118 0.68057,0.458807 0.77998,0.634687 0.0994,0.17588 0.37478,0.55825 0.37478,0.55825 0,0 -0.0189,0.10116 -0.0347,0.21054 l 3.5e-4,-3.5e-4 0.26378,0.04205 -7e-4,0.01345 0.0197,-0.0077 c 0.009,0.03182 0.0179,0.02361 0.0269,0.105134 -0.006,0.130605 7e-4,0.273829 -0.0326,0.372799 -0.0266,0.09511 -0.0911,0.135855 -0.12228,0.175887 l -0.0188,-6.99e-4 0.005,0.09052 -0.0612,0.649938 0.0612,0.09945 c 0,0 -0.008,0.252294 0.0153,0.359351 0.0229,0.107057 -0.0229,0.34416 -0.0153,0.420629 0.008,0.07647 -0.18358,0.298238 -0.22182,0.32118 -0.0382,0.02294 -0.21405,0.03817 -0.21405,0.03817 l 0.0458,0.09178 c 0,0 0.13001,0.06117 0.23707,0.114701 0.10706,0.05353 0.84116,1.062915 1.07057,1.33056 0.22941,0.267643 0.92531,2.439378 1.02472,2.492907 0.0994,0.05353 1.34581,0.114789 1.34581,0.114789 l -0.0152,-0.05361 c 0,0 0.56588,0.01535 0.61176,0.01535 0.0459,0 -0.13004,-0.841166 -0.13004,-0.841166 0,0 -0.22172,-0.03059 -0.59642,-0.145293 -0.3747,-0.114704 -0.55825,-0.420562 -0.55825,-0.573502 0,-0.152939 0.25999,-0.298257 0.25999,-0.298257 0,0 -0.0153,-0.917676 0.0689,-1.085909 0.0841,-0.168233 0.54295,-0.305823 0.81824,-0.359352 0.27529,-0.05353 0.76468,-0.191218 0.86409,-0.275335 0.0994,-0.08412 0.39762,-0.129952 0.39762,-0.129952 0,0 -0.22939,-0.214112 -0.25233,-0.259994 -0.0229,-0.04588 0.17589,-0.237071 0.17589,-0.237071 0,0 0.38998,-0.01531 0.48939,-0.0077 0.0994,0.0076 0.22179,0.09175 0.26767,0.2294 0.0459,0.137646 -0.26,0.252413 -0.26,0.252413 0,0 0.2294,0.06877 0.34411,0.09936 0.1147,0.03059 0.42822,0.2294 0.51998,0.2294 0.0918,0 0.55819,0.114753 0.71113,0.160635 0.15294,0.04588 0.4665,0.244685 0.50473,0.313508 0.0382,0.06882 0.0689,1.070568 0.0689,1.070568 0,0 0.24462,0.09944 0.20639,0.32885 -0.0382,0.229409 -0.19118,0.351685 -0.58118,0.527567 -0.38999,0.17588 -0.84874,0.237072 -0.84874,0.237072 0,0 -0.41297,0.305941 -0.73414,0.542999 -0.32117,0.237056 -0.58117,0.55058 -0.58117,0.55058 l -0.55825,0.76464 -0.40529,-0.07644 c 0,0 -0.25233,0.02291 -0.4588,0.07644 -0.20647,0.05353 -0.89467,0.130041 -1.52937,0.130041 -0.6347,0 -1.09349,-0.244741 -1.09349,-0.244741 l -0.008,0.757057 c 0,0 0.0532,0.169487 0.009,0.342748 l 0.067,0.0703 -0.16818,1.896471 -1.16236,4.46268 c 0,0 -0.46853,2.29747 -0.49591,2.8656 0.0461,-0.004 0.0909,0.01 0.1341,0.062 0.10715,0.12975 0.90272,0.41779 1.14673,0.50533 0.24401,0.0875 0.51151,0.3581 0.51151,0.3581 l 0.0126,0.19998 c 0,0 -0.0984,0.21564 -0.2053,0.28442 -0.10688,0.0688 -0.46961,0.16977 -0.62458,0.17858 -0.11816,0.007 -0.3172,-0.028 -0.52297,-0.0764 0.14809,0.12274 0.28708,0.22808 0.38047,0.28398 0.28398,0.16999 0.56015,0.50686 0.56015,0.50686 l 0.0814,0.24397 c 0,0 -0.18806,0.24635 -0.34329,0.30403 -0.15523,0.0577 -0.64285,0.0853 -0.84099,0.0536 -0.36485,-0.0585 -1.25354,-0.55445 -1.46276,-0.70277 -0.20923,-0.14831 -0.58718,-0.26368 -0.76266,-0.32136 -0.17548,-0.0577 -0.35863,-0.17613 -0.35863,-0.17613 l 0.004,-0.18348 0.0403,-0.009 c 0,0 -0.05,-0.19163 0.058,-0.65306 l 0.21929,-0.0386 c -0.22286,-0.009 -0.42839,-0.037 -0.46837,-0.11458 0,0 0.18256,-0.0147 0.0764,-1.11641 -0.1052,-1.09215 0.12354,-2.20365 0.13094,-2.68329 0.007,-0.45105 0.004,-1.33115 0.11778,-3.05608 -0.15793,-0.79025 -0.27721,-1.6313 -0.0714,-2.479918 -0.0133,-0.0109 -0.02,-0.01715 -0.02,-0.01715 l 0.0422,-0.378548 c 0,0 -0.45123,0.107073 -0.6577,0.09178 -0.20647,-0.0153 -0.87167,-0.175887 -0.87167,-0.175887 0,0 -0.79529,-0.443563 -0.84117,-0.68062 -0.0459,-0.237056 -0.17595,-0.611714 -0.1683,-0.711124 0.008,-0.09941 0.5965,-2.393546 0.68062,-2.944128 0.0841,-0.550582 0.31351,-0.772273 0.4588,-0.963448 0.14529,-0.191173 0.79532,-0.443551 0.79532,-0.443551 l 0.0688,-0.06119 0.33643,-0.244743 0.0536,-0.04584 0.21405,-0.259994 0.11471,-0.259994 0.0842,-0.03826 c 0,0 0.0229,-0.191145 0.0229,-0.367023 0,-0.175882 -0.2141,-0.428286 -0.57351,-0.917692 -0.3594,-0.489407 -0.31354,-0.940564 -0.26766,-1.445263 0.0459,-0.504701 0.0763,-0.74933 0.64985,-0.963447 0.28676,-0.107057 0.57168,-0.149199 0.83837,-0.156845 z m 1.83115,1.606077 c -0.003,0.04078 -0.004,0.07499 -7e-4,0.09548 0.0123,0.07409 0.1045,0.297697 0.13952,0.381102 l 0.0211,0.02418 c 0.0236,-0.02651 0.0682,-0.05908 0.0918,-0.139518 0.0223,-0.05374 0.0191,-0.1685 0.019,-0.275966 z m -3.20087,6.916677 -0.0879,0.145293 -0.16064,0.210269 -0.0993,0.21406 0.69199,0.359443 -0.13762,-0.420538 z"
       sodipodi:nodetypes="ccsscccccccccccccscsccsssccscsscssscscsscsssscsscscccsscccccccssccsscsccssssccccccssccccscsssscccccccsssscccccccccccccccc" /></g></svg>
